<svg id="SvgjsSvg1001" width="288" height="288" xmlns="http://www.w3.org/2000/svg" version="1.1" xmlns:xlink="http://www.w3.org/1999/xlink" xmlns:svgjs="http://svgjs.com/svgjs"><defs id="SvgjsDefs1002"></defs><g id="SvgjsG1008"><svg xmlns="http://www.w3.org/2000/svg" viewBox="0 0 192 285" width="288" height="288"><path fill="#e5e5e6" d="M0,0 L100,0 L109,9 L117,16 L133,32 L134,34 L134,77 L133,78 L79,78 L69,72 L64,70 L64,67 L73,67 L75,64 L70,60 L62,56 L62,53 L67,51 L65,47 L61,44 L63,39 L58,34 L57,29 L59,26 L55,24 L56,18 L52,14 L51,7 L48,10 L45,18 L42,21 L44,23 L43,28 L37,33 L41,35 L41,37 L33,43 L33,46 L38,47 L37,51 L28,56 L26,59 L27,60 L40,60 L38,64 L23,72 L14,79 L12,83 L17,84 L29,83 L32,81 L35,81 L34,86 L26,93 L16,100 L12,107 L11,118 L15,116 L22,113 L34,111 L33,115 L23,121 L20,124 L20,126 L26,127 L33,125 L36,124 L35,130 L17,142 L14,146 L14,149 L21,148 L30,150 L29,155 L19,159 L-4,159 L-12,152 L-33,131 L-34,129 L-34,33 L-29,28 L-8,7 Z " transform="translate(48 12)" class="svgShape color040202-0 selectable"></path><path fill="#e5e5e6" d="M0,0 L19,0 L46,27 L47,29 L47,120 L40,128 L31,137 L23,144 L14,153 L12,154 L1,154 L-9,151 L-19,143 L-24,140 L-28,132 L-28,99 L-21,101 L-11,101 L-1,105 L6,110 L11,109 L10,102 L6,93 L1,89 L-2,87 L-2,82 L0,78 L-3,75 L-13,72 L-17,68 L-16,65 L-6,68 L2,68 L0,62 L-5,58 L-17,52 L-17,49 L-4,51 L1,52 L0,46 L-6,38 L-21,29 L-23,25 L-14,26 L-6,26 L-6,22 L-12,17 L-20,13 L-22,10 L-22,7 L-16,8 L-3,13 L1,12 Z " transform="translate(135 120)" class="svgShape color040202-1 selectable"></path><path fill="#e5e5e6" d="M0,0 L110,0 L133,23 L141,30 L148,37 L148,96 L96,97 L95,101 L93,103 L78,102 L83,106 L114,107 L148,141 L148,243 L131,259 L116,274 L109,280 L1,280 L-12,268 L-28,252 L-36,245 L-38,243 L-38,188 L14,187 L16,184 L12,182 L12,177 L-4,177 L-38,143 L-38,37 L-22,21 L-14,14 Z M4,5 L-12,21 L-20,28 L-33,41 L-33,139 L-7,165 L-2,170 L0,172 L17,172 L15,176 L16,181 L25,180 L34,177 L32,182 L20,186 L17,188 L19,193 L-32,193 L-33,194 L-33,239 L-24,248 L-16,255 L4,275 L105,275 L117,264 L133,248 L141,241 L143,239 L143,145 L110,112 L86,111 L75,104 L71,100 L70,96 L74,98 L91,100 L93,96 L91,91 L142,91 L143,90 L143,41 L127,25 L119,18 L106,5 Z " transform="translate(43 3)" class="svgShape color040202-2 selectable"></path><path fill="#e5e5e6" d="M0,0 L46,0 L45,3 L40,7 L36,17 L36,22 L40,23 L48,17 L55,14 L67,12 L72,8 L75,8 L75,43 L73,50 L63,60 L57,69 L52,72 L47,73 L35,73 L27,66 L19,58 L11,51 L1,41 L0,39 Z " transform="translate(14 201)" class="svgShape color040202-3 selectable"></path></svg></g></svg>