<svg id="SvgjsSvg1001" width="288" height="288" xmlns="http://www.w3.org/2000/svg" version="1.1" xmlns:xlink="http://www.w3.org/1999/xlink" xmlns:svgjs="http://svgjs.com/svgjs"><defs id="SvgjsDefs1002"></defs><g id="SvgjsG1008"><svg xmlns="http://www.w3.org/2000/svg" viewBox="0 0 269 367" width="288" height="288"><path fill="#e5e5e6" d="M0 0 C3.42430894 1.23655601 6.40112619 2.40112619 9 5 C9.25 7.6875 9.25 7.6875 9 10 C9.721875 9.835 10.44375 9.67 11.1875 9.5 C14 10 14 10 15.4453125 11.78125 C16.70314992 13.82254045 17.88633253 15.8769233 19 18 C17.5023304 20.49824035 15.98441782 22.86004673 14 25 C11.1875 25.4375 11.1875 25.4375 9 25 C9 27.31 9 29.62 9 32 C13.95 32.66 18.9 33.32 24 34 C23.55994932 29.24169933 23.55994932 29.24169933 21.5 27.625 C19.0237485 24.94239421 19 22.55566775 19 19 C21.125 16.5 21.125 16.5 24 15 C26.8125 15.25 26.8125 15.25 29 16 C29 14.68 29 13.36 29 12 C31.97 11.34 34.94 10.68 38 10 C41.93846154 14.30769231 41.93846154 14.30769231 42.25 17.8125 C42.1675 18.534375 42.085 19.25625 42 20 C43.32 20.33 44.64 20.66 46 21 C46.99 24.465 46.99 24.465 48 28 C43.69230769 32.92307692 43.69230769 32.92307692 40.1875 33.3125 C39.465625 33.209375 38.74375 33.10625 38 33 C38 34.98 38 36.96 38 39 C40.97 40.65 43.94 42.3 47 44 C46.67 43.01 46.34 42.02 46 41 C45.61416786 38.2661037 45.4951299 35.7228949 46 33 C49.28304683 29.99835718 51.71876343 29.89296909 56 30 C56.825 29.649375 57.65 29.29875 58.5 28.9375 C61.52244271 27.80408398 62.99261299 27.86206978 66 29 C67.375 30.6875 67.375 30.6875 68 33 C67.5560135 37.2979227 66.52823367 40.32596109 64.3046875 44.01171875 C63.48230591 45.3891626 63.48230591 45.3891626 62.64331055 46.79443359 C62.05976807 47.74914551 61.47622559 48.70385742 60.875 49.6875 C60.2869458 50.66541504 59.6988916 51.64333008 59.09301758 52.65087891 C55.16286843 59.16369749 51.18116541 65.64462858 47 72 C47.95519531 72.02578125 48.91039062 72.0515625 49.89453125 72.078125 C63.77743537 72.68714572 74.54079083 75.85270359 84.25 86.3125 C92.82425847 96.82589595 93.28478345 110.03726618 92 123 C90.99039019 128.42862623 89.63276523 133.75613775 88.13452148 139.0690918 C86.17858449 146.19167674 85.64680127 152.62207107 86 160 C87.051875 160.0825 88.10375 160.165 89.1875 160.25 C93.34583134 161.0680324 95.03734506 162.03734506 98 165 C100.70860921 169.44782143 100.68271644 173.93309247 100 179 C98.1875 181.9375 98.1875 181.9375 96 184 C95.4225 184.598125 94.845 185.19625 94.25 185.8125 C93.8375 186.204375 93.425 186.59625 93 187 C93.969375 187.78375 94.93875 188.5675 95.9375 189.375 C97.83962346 190.91288705 98.89629957 191.79259913 100 194 C101.12535156 193.89816406 102.25070313 193.79632813 103.41015625 193.69140625 C110.79369943 193.36901254 116.69848775 193.42438848 122.53515625 198.40625 C126.28686847 202.03906839 129.73414287 205.92681129 133 210 C129.88546291 213.73447089 126.82837884 217.26905366 123.125 220.4375 C120.46231472 223.10018528 120.03613924 223.78677847 119.375 227.6875 C120.18293742 236.04157291 122.79120486 244.09148089 126.1328125 251.74609375 C130.01520734 261.83682268 129.20058751 275.28242679 125.328125 285.22265625 C119.37120515 297.67962688 111.0537178 307.71870132 98 313 C93.38782832 314.46237437 88.71543091 315.67860488 84.00561523 316.78344727 C70.97027597 319.93672689 61.85870977 326.91062615 53.6875 337.4375 C42.76348672 351.1304472 27.36692987 358.37435306 10.5 361.6875 C-9.91631842 363.51038557 -27.39981605 357.857096 -43.3046875 345.16015625 C-47.5392959 341.57758963 -51.02637772 337.81211471 -54.4375 333.4375 C-63.13212021 322.53903509 -73.82078943 318.16956188 -87.0625 315.0625 C-100.65951946 311.81582622 -111.31258013 304.30635056 -118.75390625 292.26953125 C-125.27271178 280.39672243 -126.77620509 268.31766193 -124.46875 254.9140625 C-123.76199032 252.54027185 -122.94989231 250.28692559 -122 248 C-117.00708018 236.33539261 -117.00708018 236.33539261 -117 224 C-120.46133711 218.87987947 -125.27702434 214.91551985 -130 211 C-128.64414029 209.36601523 -127.27611907 207.74122668 -125.86328125 206.15625 C-123.94570621 204.00299979 -123.94570621 204.00299979 -122.23046875 201.53125 C-119.52757436 198.16196153 -117.25995352 195.41256758 -112.83349609 194.60449219 C-107.52816092 194.22056051 -102.29092568 194.53768611 -97 195 C-96.72414062 194.39671875 -96.44828125 193.7934375 -96.1640625 193.171875 C-94.59615187 190.24651154 -92.39509236 188.26903486 -90 186 C-91.423125 185.01 -91.423125 185.01 -92.875 184 C-96.01624243 181.36492934 -97.15040439 179.0587007 -97.875 175.05078125 C-98.08826174 171.55195586 -97.4406999 169.18154562 -96 166 C-91.94782213 161.66511204 -88.89428563 160.35365714 -83 160 C-82.57945629 151.88340693 -83.73012408 145.03579876 -85.9375 137.25 C-90.37594711 120.52215192 -92.24404988 105.59058798 -83.75390625 89.796875 C-78.22385765 80.97835652 -70.95543517 76.5619198 -61.15625 73.40625 C-57.87814162 72.78863538 -54.57431015 72.62916628 -51.25 72.4375 C-50.55261719 72.39431641 -49.85523437 72.35113281 -49.13671875 72.30664062 C-47.42468078 72.20110404 -45.71236439 72.1001009 -44 72 C-44.34901367 71.49315674 -44.69802734 70.98631348 -45.05761719 70.46411133 C-49.41845975 64.03794513 -53.36078755 57.4071033 -57.25 50.6875 C-57.87390625 49.61693359 -58.4978125 48.54636719 -59.140625 47.44335938 C-64.95093722 37.44436303 -64.95093722 37.44436303 -66 35 C-65.06434658 32.35435928 -63.54985485 30.37036624 -62 28 C-54.375 28.875 -54.375 28.875 -51 30 C-50.175 30.144375 -49.35 30.28875 -48.5 30.4375 C-46 31 -46 31 -43 33 C-42.70703125 34.875 -42.70703125 34.875 -42.8125 37 C-42.85310547 38.051875 -42.85310547 38.051875 -42.89453125 39.125 C-42.92933594 39.74375 -42.96414062 40.3625 -43 41 C-43 41.66 -43 42.32 -43 43 C-41.329375 42.01 -41.329375 42.01 -39.625 41 C-36.25 39 -36.25 39 -34 39 C-34.495 36.03 -34.495 36.03 -35 33 C-35.721875 33.0825 -36.44375 33.165 -37.1875 33.25 C-40.83548794 32.92573441 -42.34568298 31.42680413 -45 29 C-44.01 26.03 -43.02 23.06 -42 20 C-41.01 20 -40.02 20 -39 20 C-39.4021875 19.195625 -39.4021875 19.195625 -39.8125 18.375 C-40 16 -40 16 -37.9375 12.6875 C-35 10 -35 10 -31.875 10 C-29 11 -29 11 -26 13 C-26 13.99 -26 14.98 -26 16 C-24.9171875 15.5978125 -24.9171875 15.5978125 -23.8125 15.1875 C-21 15 -21 15 -18.0625 16.9375 C-16 20 -16 20 -16.1328125 22.1171875 C-16.6875 24.3125 -16.6875 24.3125 -18 28 C-19.32 28.33 -20.64 28.66 -22 29 C-21.505 31.475 -21.505 31.475 -21 34 C-16.05 33.34 -11.1 32.68 -6 32 C-6 29.69 -6 27.38 -6 25 C-6.721875 25.144375 -7.44375 25.28875 -8.1875 25.4375 C-11 25 -11 25 -12.4453125 23.44140625 C-13.69868893 21.66161172 -14.88087302 19.86679905 -16 18 C-13.43923734 12.87847468 -12.4293113 11.00027259 -7 9 C-6.30341637 7.34561387 -5.63903117 5.67745682 -5 4 C-2.375 1.6875 -2.375 1.6875 0 0 Z M1 7 C-1.34973818 8.89755144 -1.34973818 8.89755144 -1.125 12.125 C-1.08375 13.07375 -1.0425 14.0225 -1 15 C-2.423125 14.9071875 -2.423125 14.9071875 -3.875 14.8125 C-5.421875 14.9053125 -5.421875 14.9053125 -7 15 C-7.66 15.99 -8.32 16.98 -9 18 C-8.505 18.495 -8.505 18.495 -8 19 C-5.69 19 -3.38 19 -1 19 C-1 25.27 -1 31.54 -1 38 C-3.97 38 -6.94 38 -10 38 C-12.70022626 38.42595118 -15.39062503 38.9222973 -18.0625 39.5 C-18.73732422 39.64308594 -19.41214844 39.78617188 -20.10742188 39.93359375 C-21.74002698 40.28095654 -23.37029522 40.63927483 -25 41 C-25.50404808 38.89679937 -26.00310508 36.79240209 -26.5 34.6875 C-26.7784375 33.51574219 -27.056875 32.34398437 -27.34375 31.13671875 C-28 28 -28 28 -28 25 C-26.35 24.34 -24.7 23.68 -23 23 C-26.01031744 22.06576355 -26.86650268 21.95550089 -30 23 C-30.33 21.02 -30.66 19.04 -31 17 C-31.66 17 -32.32 17 -33 17 C-32.67 19.31 -32.34 21.62 -32 24 C-33.98 24.33 -35.96 24.66 -38 25 C-38 25.66 -38 26.32 -38 27 C-36.02 26.67 -34.04 26.34 -32 26 C-30.04911777 31.61854082 -28.36827653 37.21113776 -27 43 C-27.69867188 43.0928125 -28.39734375 43.185625 -29.1171875 43.28125 C-32.57850593 44.14423454 -35.08551307 45.64126614 -38.125 47.5 C-43.72809668 50.90936556 -43.72809668 50.90936556 -47 52 C-49.97 46.555 -49.97 46.555 -53 41 C-51.68 39.68 -50.36 38.36 -49 37 C-50.98 37.33 -52.96 37.66 -55 38 C-55.66 37.01 -56.32 36.02 -57 35 C-57.66 35.33 -58.32 35.66 -59 36 C-54.38 43.92 -49.76 51.84 -45 60 C-41.98289096 58.49144548 -39.41641366 56.96371275 -36.625 55.125 C-19.20480585 44.56965273 5.03136293 44.78786367 24.44140625 49.01953125 C32.87196719 51.34233124 40.15084623 54.5518095 47 60 C52.37376274 52.22384921 57.18216608 44.12607988 62 36 C61.01 36 60.02 36 59 36 C58.67 36.66 58.34 37.32 58 38 C57.01 38.66 56.02 39.32 55 40 C54.855625 40.7425 54.71125 41.485 54.5625 42.25 C53.83812561 45.79138589 52.03324794 48.04851106 50 51 C50 51.66 50 52.32 50 53 C49.14277344 52.45730469 48.28554687 51.91460937 47.40234375 51.35546875 C46.24755768 50.6325539 45.09260054 49.90991227 43.9375 49.1875 C43.37611328 48.83107422 42.81472656 48.47464844 42.23632812 48.10742188 C41.67236328 47.75615234 41.10839844 47.40488281 40.52734375 47.04296875 C40.01937256 46.72352295 39.51140137 46.40407715 38.98803711 46.07495117 C36.09440666 44.51033679 33.0235702 43.2958158 30 42 C31.32 36.72 32.64 31.44 34 26 C36.31 26.33 38.62 26.66 41 27 C40.505 26.01 40.505 26.01 40 25 C37.47266765 24.34444881 37.47266765 24.34444881 35 24 C35.33 21.69 35.66 19.38 36 17 C35.34 17 34.68 17 34 17 C33.67 18.98 33.34 20.96 33 23 C30.69 22.67 28.38 22.34 26 22 C26.495 22.99 26.495 22.99 27 24 C29.02463255 24.65213292 29.02463255 24.65213292 31 25 C30.7834375 25.90363281 30.566875 26.80726562 30.34375 27.73828125 C30.0653125 28.91777344 29.786875 30.09726562 29.5 31.3125 C29.2215625 32.48425781 28.943125 33.65601563 28.65625 34.86328125 C27.89760916 37.95529844 27.89760916 37.95529844 28 41 C27.02160156 40.79503906 26.04320312 40.59007812 25.03515625 40.37890625 C18.03263899 38.93266624 11.13348978 37.62574472 4 37 C4 31.39 4 25.78 4 20 C7.465 19.505 7.465 19.505 11 19 C10.505 17.02 10.505 17.02 10 15 C7.69 15 5.38 15 3 15 C3 12.69 3 10.38 3 8 C2.34 7.67 1.68 7.34 1 7 Z M-39 63 C-39.87943404 65.63460948 -39.87943404 65.63460948 -40 68 C-24.03604077 79.72862311 -0.02751592 79.97439149 18.93359375 77.1784668 C27.06024354 75.78146588 36.9915384 74.0084616 43 68 C43.21726646 65.56457789 43.21726646 65.56457789 42 63 C31.15963093 53.33793192 15.66345481 51.60687177 1.6875 51.6875 C0.68565674 51.69168945 -0.31618652 51.69587891 -1.34838867 51.70019531 C-13.65965814 51.88689521 -30.0695124 53.49335191 -39 63 Z M-77 90 C-83.33359282 99.73407141 -85.57607509 110.93703501 -83.23046875 122.32421875 C-82.89185314 123.78077719 -82.54394817 125.23520261 -82.1875 126.6875 C-82.00807861 127.46424072 -81.82865723 128.24098145 -81.64379883 129.04125977 C-80.80622593 132.6662812 -79.93094658 136.28059247 -79.03125 139.890625 C-77.13027523 147.88175967 -76.04164329 155.312853 -78.7734375 163.24609375 C-80 165 -80 165 -82.05859375 165.65234375 C-82.84363281 165.74644531 -83.62867188 165.84054688 -84.4375 165.9375 C-88.24951989 166.62633373 -88.24951989 166.62633373 -91.125 169.25 C-92.22546767 172.70861269 -92.19377123 174.5679077 -91 178 C-88.33986889 180.28011238 -86.44569055 180.92571824 -83 181.5 C-78.8780109 180.81300182 -77.54799829 179.2557756 -75 176 C-70.24737184 166.01948086 -72.35343051 155.0534331 -74.4375 144.6875 C-77.25294355 130.59534622 -79.80020506 115.0055173 -72.78125 101.6875 C-68.72291465 95.73527482 -62.83779953 91.27926651 -56 89 C-42.64706762 87.98816289 -42.64706762 87.98816289 -38.3125 90.5625 C-35.4446264 93.58539379 -34.35747265 96.07841236 -33 100 C-34.98 100 -36.96 100 -39 100 C-39.144375 99.360625 -39.28875 98.72125 -39.4375 98.0625 C-39.81007181 96.02454854 -39.81007181 96.02454854 -41 95 C-43.87306228 94.49904977 -43.87306228 94.49904977 -47 95 C-49.610911 96.95086064 -49.610911 96.95086064 -51 100 C-51 104.08367503 -50.65876935 106.19247628 -48.0625 109.375 C-44.31935106 112.32414765 -41.74858239 112.32193779 -37 112 C-33.3502365 110.34101659 -30.87587336 108.56415939 -29 105 C-27.24853997 98.85098926 -28.0958057 94.00707285 -30.6953125 88.234375 C-33.55502407 83.33690488 -37.63748773 80.72741992 -43 79 C-56.23605679 77.77733525 -67.88432928 79.36166713 -77 90 Z M35.125 85.875 C31.53146892 91.15960452 30.43034578 95.61987273 31 102 C32.47483857 105.65198122 33.96538089 108.47827426 37 111 C41.37817489 112.31762216 45.10879399 112.29166742 49.4375 110.875 C52.41419812 108.69692821 53.2479985 107.59289605 54 104 C53.81265411 100.87756847 53.49101602 98.77528845 51.8125 96.125 C49.13821847 94.46510112 47.07569148 94.67279878 44 95 C43.34 95.66 42.68 96.32 42 97 C42 97.99 42 98.98 42 100 C40.02 100 38.04 100 36 100 C37.472661 92.39125152 37.472661 92.39125152 39.9375 90.5625 C40.618125 90.376875 41.29875 90.19125 42 90 C42.99 89.67 43.98 89.34 45 89 C54.06733505 88.1746249 61.48756162 88.53892856 69 94 C76.38833422 100.30087378 79.01819045 108.7625949 79.875 118.1875 C80.26389657 127.40990435 78.93598782 136.18873834 77.1953125 145.21875 C77.05963867 145.92330322 76.92396484 146.62785645 76.78417969 147.35375977 C76.39797294 149.3205107 75.99255475 151.283461 75.5859375 153.24609375 C74.30438461 161.45657594 74.38291334 170.29872305 79 177.5 C81.37730722 180.47163402 82.07466097 180.89718455 85.8125 181.3125 C89.84672885 180.91698737 91.34140758 180.04956189 94 177 C94.66676878 173.45749949 94.66676878 173.45749949 94 170 C91.83361999 167.154504 89.8507012 166.53722927 86.4375 165.75 C84.03125 164.9921875 84.03125 164.9921875 82 164 C77.5196516 155.03930319 80.51624271 144.82400633 82.9375 135.6875 C86.63483384 121.69596523 89.64341537 107.16014641 82.1796875 93.83984375 C77.34088356 86.2932323 71.72221012 82.22655483 63.1484375 79.38671875 C52.85110193 77.53319835 42.49690739 77.82521606 35.125 85.875 Z M-30 80 C-29.49339844 80.65742187 -29.49339844 80.65742187 -28.9765625 81.328125 C-24.75286225 87.33408026 -23.90581845 92.75345237 -23 100 C-19.37 98.02 -15.74 96.04 -12 94 C-12.103125 92.576875 -12.20625 91.15375 -12.3125 89.6875 C-12.37050781 88.88699219 -12.42851563 88.08648437 -12.48828125 87.26171875 C-13.12307521 84.45602636 -13.60724571 83.60824469 -16 82 C-19.41563186 81.20049537 -19.41563186 81.20049537 -23.1875 80.8125 C-24.45980469 80.65394531 -25.73210937 80.49539062 -27.04296875 80.33203125 C-28.01878906 80.22246094 -28.99460937 80.11289063 -30 80 Z M23.5 81.25 C21.75203125 81.59804687 21.75203125 81.59804687 19.96875 81.953125 C16.93843956 82.70284601 16.93843956 82.70284601 15.640625 84.8984375 C14.56833479 88.41607246 14.24012036 90.32724841 15 94 C18.09943124 96.47629384 21.44179452 98.26537483 25 100 C25.25523437 98.80503906 25.25523437 98.80503906 25.515625 97.5859375 C26.90237541 91.52259261 28.22742686 86.9433717 32 82 C32 81.34 32 80.68 32 80 C29.07193327 80 26.36452691 80.6542798 23.5 81.25 Z M-7 83 C-6.67 85.97 -6.34 88.94 -6 92 C-1.05 92 3.9 92 9 92 C9.33 89.03 9.66 86.06 10 83 C4.39 83 -1.22 83 -7 83 Z M-66 101 C-72.85825554 111.66467121 -73.6269852 123.5530444 -71.10546875 135.796875 C-70.7425082 137.44914096 -70.37393072 139.10018214 -70 140.75 C-67.04964037 154.04786709 -65.22569818 168.6212557 -72 181 C-72.33 181.99 -72.66 182.98 -73 184 C-72.31292969 184.26554687 -71.62585938 184.53109375 -70.91796875 184.8046875 C-70.01691406 185.15789062 -69.11585937 185.51109375 -68.1875 185.875 C-67.29417969 186.22304687 -66.40085937 186.57109375 -65.48046875 186.9296875 C-63 188 -63 188 -60 190 C-58.88526463 187.77052927 -58.69920895 186.13321871 -58.421875 183.66015625 C-55.85680178 162.17742459 -51.19845905 140.87533306 -40.1015625 122.0390625 C-38.84156483 120.09299112 -38.84156483 120.09299112 -39 118 C-39.73605469 117.85304688 -40.47210938 117.70609375 -41.23046875 117.5546875 C-50.20790845 115.49118088 -50.20790845 115.49118088 -53.125 112.375 C-55.96077251 107.27060948 -56.38210917 102.6747642 -55.5625 96.9375 C-55.376875 96.298125 -55.19125 95.65875 -55 95 C-59.79121252 95 -62.67578797 97.7081877 -66 101 Z M58 95 C58.04640625 95.86882812 58.0928125 96.73765625 58.140625 97.6328125 C58.43380329 106.99357637 58.43380329 106.99357637 56.4375 111.625 C51.93605895 116.01101949 47.03997376 117.07273642 41 118 C41.50789062 118.95777344 42.01578125 119.91554688 42.5390625 120.90234375 C53.87127088 142.64890416 59.83125735 165.59355283 62 190 C64.34497274 188.83256745 66.67650212 187.64765515 69 186.4375 C71.40371011 185.28572224 73.40632775 184.49878313 76 184 C75.731875 183.505 75.46375 183.01 75.1875 182.5 C68.58286601 168.5955074 69.81989402 155.76618564 72.8046875 140.98046875 C75.23920921 128.86984032 77.34140229 116.20042656 71.3125 104.8125 C67.61206939 100.31197628 63.90861309 96.10138621 58 95 Z M-23 108 C-24.34295371 109.65892462 -25.67739122 111.32480999 -27 113 C-9.06492194 124.99741764 8.8998208 136.95028029 26.90197754 148.84683228 C28.8847791 150.15779749 30.86679416 151.46995304 32.84802246 152.78329468 C35.64390168 154.63619007 38.44265086 156.48466806 41.2421875 158.33203125 C42.08451935 158.89145416 42.9268512 159.45087708 43.79470825 160.0272522 C44.95762894 160.79263809 44.95762894 160.79263809 46.14404297 161.57348633 C46.81950165 162.02009109 47.49496033 162.46669586 48.19088745 162.92683411 C50.12070528 164.15803082 50.12070528 164.15803082 53 165 C47.70114003 141.56033707 39.29601116 115.71113048 18 102 C3.9099702 93.86350392 -11.44350109 96.58588096 -23 108 Z M-31 118 C-34.04512079 120.94796946 -34.04512079 120.94796946 -35.02661133 124.87524414 C-33.40507029 128.23131351 -30.43342537 129.79027177 -27.38671875 131.74609375 C-26.71048462 132.19311142 -26.03425049 132.64012909 -25.33752441 133.10069275 C-23.12793694 134.55742006 -20.90796897 135.9974254 -18.6875 137.4375 C-17.15143828 138.44577056 -15.61604034 139.45505306 -14.08129883 140.46533203 C-9.73029328 143.32480445 -5.36695673 146.16496834 -1 149 C-0.02933594 149.63147949 0.94132812 150.26295898 1.94140625 150.91357422 C4.95431646 152.87281218 7.968044 154.83066029 10.98876953 156.77783203 C16.75494655 160.50562019 22.47100936 164.30612134 28.1796875 168.12109375 C28.99815659 168.66791809 29.81662567 169.21474243 30.65989685 169.77813721 C34.81906168 172.55796814 38.97589133 175.34122649 43.13012695 178.12841797 C44.66353926 179.15467463 46.19698502 180.18088131 47.73046875 181.20703125 C48.44923187 181.69070663 49.167995 182.17438202 49.90853882 182.67271423 C52.73696223 184.95776065 52.73696223 184.95776065 56 186 C56.30189161 181.78755892 56.14494222 178.08043286 55 174 C52.34657466 170.96828591 49.24633374 169.16865125 45.81825256 167.10743713 C42.66929092 165.18950938 39.58088397 163.17898803 36.48828125 161.171875 C35.76091263 160.70045578 35.03354401 160.22903656 34.28413391 159.74333191 C25.35373589 153.94520669 16.46526321 148.08323669 7.57788086 142.21948242 C4.67419432 140.30372133 1.76977181 138.3890801 -1.13476562 136.47460938 C-2.0790744 135.85190155 -3.02338318 135.22919373 -3.99630737 134.58761597 C-5.84249909 133.37019459 -7.68894828 132.15316355 -9.53567505 130.93655396 C-13.35475885 128.41806827 -17.16921005 125.89461947 -20.95458984 123.32568359 C-22.03562988 122.5930127 -23.11666992 121.8603418 -24.23046875 121.10546875 C-25.57274536 120.18544067 -25.57274536 120.18544067 -26.94213867 119.24682617 C-28.88406975 117.82726949 -28.88406975 117.82726949 -31 118 Z M-37 132 C-37 138.27 -37 144.54 -37 151 C-35.68 150.01 -34.36 149.02 -33 148 C-29.75 148.8125 -29.75 148.8125 -27 150 C-26.45936705 145.87517086 -26.20694418 142.10093336 -27 138 C-29.61172533 135.17063089 -32.47986469 133.51718497 -36 132 C-36.33 132 -36.66 132 -37 132 Z M-44 142 C-47.77458748 153.92232161 -51.08991451 165.62720744 -53 178 C-53.13148437 178.78890625 -53.26296875 179.5778125 -53.3984375 180.390625 C-54.50403208 188.21942988 -54 196.09840665 -54 204 C-17.37 204 19.26 204 57 204 C57 201.03 57 198.06 57 195 C34.23 195 11.46 195 -12 195 C-9.69 192.36 -7.38 189.72 -5 187 C-4.34 185.68 -3.68 184.36 -3 183 C-5.64 180.36 -8.28 177.72 -11 175 C1.21 174.67 13.42 174.34 26 174 C22.61465563 170.61465563 19.72354027 168.34577952 15.7578125 165.76953125 C15.15299042 165.37481125 14.54816833 164.98009125 13.92501831 164.57341003 C11.99461223 163.31519644 10.05989645 162.06379434 8.125 160.8125 C6.86429847 159.99197397 5.60387942 159.17101376 4.34375 158.34960938 C1.20666587 156.30678733 -1.93575617 154.27236482 -5.08044434 152.24127197 C-7.06624036 150.95716597 -9.04931318 149.6689231 -11.03222656 148.38037109 C-12.31566657 147.54901679 -13.59919203 146.71779439 -14.8828125 145.88671875 C-15.48366669 145.49539261 -16.08452087 145.10406647 -16.70358276 144.70088196 C-19.16286402 142.8132869 -19.16286402 142.8132869 -22 142 C-22.33 148.93 -22.66 155.86 -23 163 C-25.64 160.36 -28.28 157.72 -31 155 C-35.9486833 157.21081851 -35.9486833 157.21081851 -42 164 C-42.33 156.74 -42.66 149.48 -43 142 C-43.33 142 -43.66 142 -44 142 Z M2 180 C2.99 181.65 3.98 183.3 5 185 C4.01 186.32 3.02 187.64 2 189 C17.51 189 33.02 189 49 189 C42.30083035 182.30083035 38.30694476 179.58694401 28.5625 179.51171875 C25.37331894 179.52645102 22.18798136 179.60306915 19 179.6875 C17.3502942 179.71261338 15.7005516 179.73542119 14.05078125 179.75585938 C10.03293684 179.81061771 6.01687802 179.89671793 2 180 Z M-89.8125 194.25 C-96.16787007 202.23960809 -96.02569885 211.24503303 -95 221 C-92.15627525 238.67653627 -85.07918431 255.65589244 -78 272 C-75.67210485 269.16604069 -74.92622107 267.70488428 -74 264 C-69.545 264.99 -69.545 264.99 -65 266 C-66.37963869 262.23198648 -68.11801396 259.04610551 -70.30078125 255.68359375 C-71.27241211 254.16475586 -71.27241211 254.16475586 -72.26367188 252.61523438 C-73.6136659 250.52139236 -74.96773876 248.43017369 -76.32617188 246.34179688 C-83.33525498 235.3532739 -88.15228966 225.21675499 -88.25 212.0625 C-88.270625 211.37220703 -88.29125 210.68191406 -88.3125 209.97070312 C-88.35483558 204.38769803 -87.16621406 200.24357885 -83.25 196.1875 C-79.06068693 193.97647366 -75.30626414 193.77818156 -70.6875 194.5625 C-68 196 -68 196 -66.6875 199 C-66.3471875 200.485 -66.3471875 200.485 -66 202 C-65.67 202.66 -65.34 203.32 -65 204 C-70.51612903 203.49853372 -70.51612903 203.49853372 -73.0625 200.875 C-74.85776007 198.7138657 -74.85776007 198.7138657 -77.5625 198.9375 C-80.85472749 200.37257352 -81.67363876 201.6840969 -83 205 C-82.92371866 208.7377856 -82.47264189 210.43587903 -80.0625 213.3125 C-77.0410006 215.78463587 -75.51764817 216.1711123 -71.6875 215.875 C-68.02823197 215.42716688 -67.02776869 215.02198354 -64 212.625 C-60.81789366 208.44848542 -60.57030997 205.15628033 -61 200 C-62.35680972 196.40150466 -64.24547006 193.64673994 -67.1875 191.125 C-75.57871944 187.76851222 -82.74910474 188.59928379 -89.8125 194.25 Z M69 192 C65.31314925 195.78138538 64.12015499 198.53410914 63.6875 203.8125 C63.75197235 208.18856104 65.07594364 210.68080089 68 214 C71.67462646 216.34767802 74.95738716 216.21658435 79.1328125 215.5390625 C82.00482211 214.70990491 83.31300395 213.42927431 85 211 C86.34215568 207.59987227 86.08323217 206.24044848 84.875 202.75 C83.25886636 199.8555049 83.25886636 199.8555049 80.5625 198.9375 C77.39155253 199.01484018 76.22017326 199.77982674 74 202 C74 202.66 74 203.32 74 204 C72.02 204 70.04 204 68 204 C71.06812418 196.62964582 71.06812418 196.62964582 74.3125 194.4375 C79.12019645 193.65485174 82.6615165 194.16716582 86.8125 196.75 C91.42179781 201.49099204 91.39537332 206.63153173 91.36572266 212.98925781 C90.94908393 228.85210834 81.94638011 241.7884922 73.625 254.6875 C72.66400391 256.18700195 72.66400391 256.18700195 71.68359375 257.71679688 C70.12568409 260.14667089 68.56446381 262.57434284 67 265 C69.54702616 266.27351308 70.4282945 265.80191925 73.125 265.0625 C73.84945312 264.86785156 74.57390625 264.67320312 75.3203125 264.47265625 C75.87460938 264.31667969 76.42890625 264.16070312 77 264 C77.99 267.465 77.99 267.465 79 271 C79.66 271 80.32 271 81 271 C96.75818714 236.86588582 96.75818714 236.86588582 96.8125 200.4375 C93.44454568 194.05000042 89.89338779 191.58527416 83.18359375 189.48046875 C77.89406287 188.31658271 73.66647452 189.57573295 69 192 Z M-110 201 C-110.0093457 201.825 -110.01869141 202.65 -110.02832031 203.5 C-110.27565504 220.88132649 -110.91320246 236.37109258 -117.1875 252.8125 C-121.05471122 263.12506325 -120.34159705 272.56356283 -117 283 C-115.32605306 286.61375603 -113.34567285 289.78769925 -111 293 C-110.33871094 293.95132813 -110.33871094 293.95132813 -109.6640625 294.921875 C-102.74418851 303.96171038 -93.76496737 307.31137723 -83.125 310 C-66.64732917 314.17454541 -56.55413955 321.17678597 -45.4375 334.125 C-33.71212112 347.6500882 -19.26883339 354.36832477 -1.65234375 356.3828125 C15.01568913 357.00244198 30.95127661 350.87965065 43.25 339.75 C47.07297956 336.17788996 50.35647522 332.39562352 53.5625 328.25 C62.28820342 317.23301475 75.47254147 312.30950074 88.75 308.9375 C100.98052208 305.75557556 109.75424478 300.11563028 116.7421875 289.3046875 C122.63413478 277.90429247 124.19702955 265.79648163 120.46875 253.5 C119.0162331 249.07404612 117.4328067 244.70080751 115.75610352 240.35498047 C114.09455713 235.17988313 113.83990189 230.03660811 113.68359375 224.6328125 C113.66281265 223.95322479 113.64203156 223.27363708 113.62062073 222.57345581 C113.5557637 220.42406334 113.49654059 218.2745593 113.4375 216.125 C113.39425388 214.6588431 113.35063775 213.19269706 113.30664062 211.7265625 C113.20014896 208.15115725 113.09870591 204.57562963 113 201 C109.7 201 106.4 201 103 201 C103.03480469 202.12535156 103.06960937 203.25070313 103.10546875 204.41015625 C103.26689818 212.1638667 103.16013402 219.30194246 101.375 226.875 C98.90190564 237.95681806 102.01874435 246.28395299 105.8828125 256.67578125 C108.39404635 264.14801904 108.86958933 271.55010463 106 279 C104.48055921 281.4880843 102.79171272 283.6896336 101 286 C101 286.66 101 287.32 101 288 C100.42378906 288.28230469 99.84757813 288.56460938 99.25390625 288.85546875 C97.84608888 289.57035694 96.45399222 290.31822539 95.08984375 291.11328125 C89.4358797 294.26349353 83.86808489 295.88272657 77.625 297.375 C69.49403366 299.36664417 62.88542736 302.11257611 56 307 C55.154375 307.58394531 54.30875 308.16789062 53.4375 308.76953125 C48.3830684 312.5208672 44.40155107 316.72457146 40.4375 321.5625 C32.41289116 331.33874399 22.83426696 338.71731731 10 341 C-5.10997184 341.81675523 -18.49187504 340.18881575 -30.44921875 329.890625 C-33.99354119 326.40046029 -37.26575384 322.71325985 -40.5 318.9375 C-51.74462358 305.93509618 -64.48693386 299.31523775 -81.125 295.625 C-89.15500987 293.64902899 -95.65464799 290.43260055 -100.5 283.5625 C-104.1373992 277.41796689 -105.98427198 271.16265391 -105 264 C-103.61551743 258.68031326 -101.85787666 253.48748338 -100.06640625 248.29296875 C-97.62070913 240.86226219 -97.13863887 234.25791974 -99 226.625 C-100.90449642 218.30959311 -100.14810773 209.47505344 -100 201 C-103.3 201 -106.6 201 -110 201 Z M118 205 C118 208.63 118 212.26 118 216 C122.23578792 213.89609059 122.23578792 213.89609059 124 210 C122.02 208.35 120.04 206.7 118 205 Z M-119.0625 208 C-119.701875 208.66 -120.34125 209.32 -121 210 C-119.63016497 213.16115776 -119.0109362 213.9927092 -116 216 C-116 212.7 -116 209.4 -116 206 C-117.35917681 205.88397569 -117.35917681 205.88397569 -119.0625 208 Z M-54 210 C-54.13011689 223.05762938 -54.13011689 223.05762938 -52.8125 235.8125 C-52.68012939 236.64160889 -52.54775879 237.47071777 -52.41137695 238.32495117 C-47.93518625 264.89809227 -38.59904473 294.3864408 -16 311 C-8.46003407 315.24353711 -0.85107926 317.29748509 7.765625 315.38671875 C22.18059054 311.19159416 31.8582351 300.50759509 39.16821289 287.74389648 C52.13392919 263.97082864 57 236.78582276 57 210 C20.37 210 -16.26 210 -54 210 Z M-62.9375 218.4375 C-68.85909605 221.45872247 -75.58492332 221.51936027 -82 220 C-81.48610283 231.30573783 -73.72605074 241.33600888 -67.625 250.4375 C-66.30212151 252.43666422 -64.98049852 254.43665983 -63.66015625 256.4375 C-63.03125488 257.38882813 -62.40235352 258.34015625 -61.75439453 259.3203125 C-58.3812417 264.47251477 -55.17114138 269.72151866 -52 275 C-53.12019531 274.71125 -54.24039063 274.4225 -55.39453125 274.125 C-56.86713989 273.74981309 -58.33979878 273.37482335 -59.8125 273 C-60.55048828 272.80921875 -61.28847656 272.6184375 -62.04882812 272.421875 C-65.10535341 271.64737086 -67.83373478 271 -71 271 C-72.98 275.62 -74.96 280.24 -77 285 C-82.95360784 272.85746386 -88.55338063 260.77951177 -93 248 C-95.75046906 249.37523453 -95.98626513 251.22621231 -96.95532227 254.01513672 C-99.92585882 263.09676981 -101.80449058 269.84916651 -97.38671875 278.82421875 C-92.90249543 285.8600283 -86.85354546 289.00413657 -79 291 C-59.24660355 296.05319444 -45.27797697 304.46732096 -32.2668457 320.03710938 C-24.46040453 329.30987671 -15.36292327 335.05434004 -3.02734375 336.44921875 C10.6376345 337.08099281 21.80494771 333.2094279 32 324 C34.36565225 321.31787253 36.57108573 318.55151754 38.7734375 315.734375 C50.26732765 301.6190713 65.60136093 294.93175107 82.8125 290.5 C90.3336467 288.47632456 95.44187577 285.58395722 100 279 C103.34879368 272.97736331 103.52605521 267.64601559 102 261 C100.49515623 256.26344256 98.80813249 251.63042048 97 247 C95.34886672 249.47669993 94.35291353 251.41119354 93.30078125 254.140625 C92.98173828 254.95756836 92.66269531 255.77451172 92.33398438 256.61621094 C91.99689453 257.48536133 91.65980469 258.35451172 91.3125 259.25 C87.87160105 268.00489354 84.10302218 276.53751674 80 285 C77.66666667 280.33333333 75.33333333 275.66666667 73 271 C71.49949022 271.28903262 69.99962262 271.58139919 68.5 271.875 C67.6646875 272.03742188 66.829375 272.19984375 65.96875 272.3671875 C62.28616252 273.1521601 58.64919551 274.07210627 55 275 C55.39678955 274.36723145 55.7935791 273.73446289 56.20239258 273.08251953 C60.15165546 266.78170451 64.09121465 260.47491698 68.02441406 254.1640625 C69.77815023 251.35531056 71.54030213 248.55206657 73.3046875 245.75 C81.79049726 234.02020171 81.79049726 234.02020171 84.578125 220.7421875 C84.38734375 220.16726562 84.1965625 219.59234375 84 219 C83.071875 219.5259375 83.071875 219.5259375 82.125 220.0625 C76.45068435 221.7647947 71.00470895 220.93741985 65.68359375 218.44921875 C64.35521484 217.73185547 64.35521484 217.73185547 63 217 C62.91024902 217.75804932 62.82049805 218.51609863 62.72802734 219.29711914 C59.96123158 242.14644181 56.35032396 264.20504389 46 285 C45.50628906 286.01320313 45.01257813 287.02640625 44.50390625 288.0703125 C38.0976964 300.53551215 27.71192797 314.23746013 14 319 C1.81876295 322.7703829 -7.98678286 320.58794268 -18.96875 314.88671875 C-21.76321646 313.14737945 -23.72470997 311.3425145 -26 309 C-26.66 309 -27.32 309 -28 309 C-28.25523438 308.42765625 -28.51046875 307.8553125 -28.7734375 307.265625 C-30.13157685 304.75695997 -31.7439643 302.89333151 -33.625 300.75 C-52.3200823 277.65209034 -56.98331637 245.52888606 -60 217 C-61.26823906 216.90069218 -61.26823906 216.90069218 -62.9375 218.4375 Z " transform="translate(135 3)" class="svgShape color1a1a1a-0 selectable"></path><path fill="#e5e5e6" d="M0 0 C3.16115776 1.36983503 3.9927092 1.9890638 6 5 C10.455 4.505 10.455 4.505 15 4 C13.66666667 8 12.33333333 12 11 16 C11.598125 16.7425 12.19625 17.485 12.8125 18.25 C15.43537779 21.54733207 16.0453781 23.94285691 17 28 C17.680625 27.29875 18.36125 26.5975 19.0625 25.875 C20.03832575 24.91326498 21.01776781 23.95519111 22 23 C22.49338867 22.50830322 22.98677734 22.01660645 23.49511719 21.51000977 C28.02629352 17.28241951 32.22188934 15.5330009 38.1875 14.0625 C38.98091797 13.84271484 39.77433594 13.62292969 40.59179688 13.39648438 C47.32120272 11.62796714 47.32120272 11.62796714 51 13 C53.08179017 17.16358033 52.32766869 22.45434165 52 27 C50.66488774 30.86479864 49.42641142 32.60478941 46.4375 35.375 C43.63801982 38.38982481 43.30122306 40.2300286 42.52734375 44.12890625 C41.74745731 46.89605888 40.2600192 48.3049856 38 50 C37.34 50 36.68 50 36 50 C35.9071875 51.3303125 35.9071875 51.3303125 35.8125 52.6875 C34.7370058 57.07220714 33.78019511 58.47986993 30 61 C25.96536596 61.41502095 22.0404753 61.28998627 18 61 C17.84144531 61.556875 17.68289062 62.11375 17.51953125 62.6875 C16.20565545 66.98481755 14.81741599 70.46036297 12.1875 74.125 C10.07579634 77.31488468 9.97954602 77.78864224 10.375 81.875 C11.71523289 85.16058342 11.71523289 85.16058342 14.625 86.4375 C15.800625 86.7159375 15.800625 86.7159375 17 87 C17 87.99 17 88.98 17 90 C15.35 90.66 13.7 91.32 12 92 C4.64507236 86.24396968 4.64507236 86.24396968 3.59375 80.95703125 C3.33243773 74.97951317 4.99842098 72.00948185 8.53125 67.28515625 C10.84697902 63.68222679 11.33375533 60.1973414 12 56 C12.97582031 55.95101562 13.95164063 55.90203125 14.95703125 55.8515625 C16.22933594 55.77679688 17.50164062 55.70203125 18.8125 55.625 C20.70935547 55.52058594 20.70935547 55.52058594 22.64453125 55.4140625 C26.12755234 55.23897061 26.12755234 55.23897061 29 53 C29.28875 52.05125 29.5775 51.1025 29.875 50.125 C31 47 31 47 33.5625 45.125 C36.43818978 43.10176034 36.43818978 43.10176034 36.4375 39.0625 C36.48003906 38.36382812 36.52257812 37.66515625 36.56640625 36.9453125 C37.32312373 33.55030977 40.35938718 32.059678 43 30 C44.95186883 26.77798123 46 23.80581493 46 20 C35.43704883 21.41811264 28.96697318 23.60970804 22.36401367 32.22729492 C21.21539805 33.79861571 20.10610653 35.39847098 19 37 C17.33203125 39.40625 17.33203125 39.40625 16 41 C15.34 41 14.68 41 14 41 C13.75878418 40.15236084 13.75878418 40.15236084 13.51269531 39.28759766 C12.77458399 36.72842567 12.01265471 34.17695999 11.25 31.625 C10.99734375 30.73554688 10.7446875 29.84609375 10.484375 28.9296875 C10.2265625 28.07890625 9.96875 27.228125 9.703125 26.3515625 C9.47270508 25.56604004 9.24228516 24.78051758 9.00488281 23.97119141 C7.72550975 21.4615563 6.61525559 20.94436376 4 20 C1 19.5 1 19.5 -2 20 C-4.37719693 21.87501931 -4.37719693 21.87501931 -6 24 C-4.35 24 -2.7 24 -1 24 C0.21655392 34.29001861 0.21655392 34.29001861 -2.67578125 38.35546875 C-7.91404639 43 -7.91404639 43 -12 43 C-14.015625 40.875 -14.015625 40.875 -16.25 38 C-17.05824219 36.99710938 -17.86648437 35.99421875 -18.69921875 34.9609375 C-20.04246405 33.23227886 -21.35442715 31.476673 -22.58203125 29.6640625 C-27.83367824 22.43092337 -35.71510582 21.06873708 -44 19 C-42.39955393 26.23008534 -40.76584081 29.2155789 -35 34 C-34.29931005 36.30226699 -33.93802589 38.55920911 -33.55859375 40.93359375 C-32.71830612 44.04207038 -30.50965689 45.11775733 -28 47 C-26.6875 50.75 -26.6875 50.75 -26 54 C-22.7 54.66 -19.4 55.32 -16 56 C-15.10008999 71.35846415 -15.10008999 71.35846415 -19.515625 77.77734375 C-21 79 -21 79 -25 79 C-25.8284454 76.64050361 -26.17085948 75.44423466 -25.2578125 73.0703125 C-24.88398437 72.42835938 -24.51015625 71.78640625 -24.125 71.125 C-22.29092964 67.74778078 -21.38662561 64.86625609 -21 61 C-21.886875 61.0825 -22.77375 61.165 -23.6875 61.25 C-27.84966758 60.93587415 -29.14478896 60.00954677 -32 57 C-33.01529541 54.67328135 -34.01488198 52.3396553 -35 50 C-35.86625 49.175 -36.7325 48.35 -37.625 47.5 C-40.62588299 44.3411758 -40.39611787 42.22717489 -41 38 C-43.33333333 35.33333333 -43.33333333 35.33333333 -46 33 C-49.58268002 28.52164998 -50.0356755 23.59213431 -50 18 C-49.0625 14.375 -49.0625 14.375 -48 12 C-35.19957671 13.70449501 -25.10655127 15.29439731 -16.625 25.8125 C-15.14410632 27.75919139 -13.67380276 29.70346429 -12.26416016 31.70239258 C-11.8469873 32.13060303 -11.42981445 32.55881348 -11 33 C-10.01 33 -9.02 33 -8 33 C-8 32.01 -8 31.02 -8 30 C-9.65 29.67 -11.3 29.34 -13 29 C-13.38299196 24.9785844 -13.2392561 23.35525905 -10.9375 19.9375 C-8.73599541 17.22884905 -8.73599541 17.22884905 -9.125 14.4375 C-9.73802677 12.72978256 -10.41026704 11.04271025 -11.125 9.375 C-12 7 -12 7 -11 4 C-9.9275 4.268125 -8.855 4.53625 -7.75 4.8125 C-6.5125 4.874375 -5.275 4.93625 -4 5 C-1.50789479 2.69931981 -1.50789479 2.69931981 0 0 Z M1 10 C-0.32 10.99 -1.64 11.98 -3 13 C-0.29120665 14.35439668 2.00933268 14.06501451 5 14 C5 13.34 5 12.68 5 12 C3.68 11.34 2.36 10.68 1 10 Z " transform="translate(135 216)" class="svgShape color1a1a1a-1 selectable"></path><path fill="#e5e5e6" d="M0 0 C2.46800047 1.15173355 4.04783565 2.04783565 6 4 C8.65537372 4.56520003 11.29144713 4.73788198 14 5 C14.12375 6.85625 14.12375 6.85625 14.25 8.75 C14.63475459 11.98882964 14.90024003 12.87907883 17.0625 15.5 C17.701875 15.995 18.34125 16.49 19 17 C17.84826645 19.46800047 16.95216435 21.04783565 15 23 C14.54188325 24.97235333 14.54188325 24.97235333 14.375 27.125 C14.25125 28.40375 14.1275 29.6825 14 31 C12.7625 31.0825 11.525 31.165 10.25 31.25 C7.01117036 31.63475459 6.12092117 31.90024003 3.5 34.0625 C2.7575 35.0215625 2.7575 35.0215625 2 36 C-0.46800047 34.84826645 -2.04783565 33.95216435 -4 32 C-6.65537372 31.43479997 -9.29144713 31.26211802 -12 31 C-12.0825 29.7625 -12.165 28.525 -12.25 27.25 C-12.63475459 24.01117036 -12.90024003 23.12092117 -15.0625 20.5 C-15.701875 20.005 -16.34125 19.51 -17 19 C-15.84826645 16.53199953 -14.95216435 14.95216435 -13 13 C-12.54188325 11.02764667 -12.54188325 11.02764667 -12.375 8.875 C-12.189375 6.956875 -12.189375 6.956875 -12 5 C-10.7625 4.9175 -9.525 4.835 -8.25 4.75 C-5.01117036 4.36524541 -4.12092117 4.09975997 -1.5 1.9375 C-1.005 1.298125 -0.51 0.65875 0 0 Z M-6 11 C-7.90012627 15.05936067 -8.48298469 18.19978435 -7.3125 22.5625 C-6.18942253 25.17502532 -6.18942253 25.17502532 -3.625 26.3125 C0.7761362 27.46517853 4.05636439 27.17937758 8 25 C10.10633738 21.08823059 10.21219247 18.2996789 9.5 13.9375 C8.33966503 10.97126905 8.33966503 10.97126905 6.296875 10.09765625 C1.77154412 8.77632872 -1.78137259 8.58935576 -6 11 Z " transform="translate(102 169)" class="svgShape color1d1d1d-2 selectable"></path><path fill="#e5e5e6" d="M0 0 C2.64 0.99 5.28 1.98 8 3 C8 3.99 8 4.98 8 6 C7.34 6.66 6.68 7.32 6 8 C6.33 8.66 6.66 9.32 7 10 C6.1875 13.5625 6.1875 13.5625 5 17 C4.34 17.33 3.68 17.66 3 18 C3.66 18.33 4.32 18.66 5 19 C5.5625 21.1796875 5.5625 21.1796875 6 23.875 C6.5722779 27.38020217 6.98046184 28.97069276 9 32 C9.125 34.6875 9.125 34.6875 9 37 C10.32 37.33 11.64 37.66 13 38 C13.33 39.32 13.66 40.64 14 42 C13.01 42 12.02 42 11 42 C10.67 43.32 10.34 44.64 10 46 C8.35 45.67 6.7 45.34 5 45 C4.67 43.68 4.34 42.36 4 41 C4.66 41 5.32 41 6 41 C6 40.01 6 39.02 6 38 C4.35 38.66 2.7 39.32 1 40 C1.33 38.35 1.66 36.7 2 35 C0.515 35.495 0.515 35.495 -1 36 C-1.495 34.515 -1.495 34.515 -2 33 C-0.68 32.01 0.64 31.02 2 30 C0.35 30.33 -1.3 30.66 -3 31 C-3.33 28.36 -3.66 25.72 -4 23 C-2.35 22.67 -0.7 22.34 1 22 C0.175 21.566875 -0.65 21.13375 -1.5 20.6875 C-2.325 20.130625 -3.15 19.57375 -4 19 C-4 18.01 -4 17.02 -4 16 C-2.35 15.34 -0.7 14.68 1 14 C-0.65 13.67 -2.3 13.34 -4 13 C-4 12.01 -4 11.02 -4 10 C-3.34 9.67 -2.68 9.34 -2 9 C-2 7.68 -2 6.36 -2 5 C-1.34 4.67 -0.68 4.34 0 4 C0 2.68 0 1.36 0 0 Z M-1 26 C0 29 0 29 0 29 Z " transform="translate(22 252)" class="svgShape color343434-3 selectable"></path><path fill="#e5e5e6" d="M0 0 C1.65 0 3.3 0 5 0 C5 0.66 5 1.32 5 2 C5.99 2.66 6.98 3.32 8 4 C7.67 5.65 7.34 7.3 7 9 C5.35 9.33 3.7 9.66 2 10 C2 9.01 2 8.02 2 7 C1.34 6.67 0.68 6.34 0 6 C0.33 7.98 0.66 9.96 1 12 C-1.475 11.505 -1.475 11.505 -4 11 C-4 11.99 -4 12.98 -4 14 C-4.99 13.67 -5.98 13.34 -7 13 C-7.33 11.35 -7.66 9.7 -8 8 C-8.66 8 -9.32 8 -10 8 C-9.67 8.763125 -9.34 9.52625 -9 10.3125 C-8 13 -8 13 -8 16 C-10.31 16.33 -12.62 16.66 -15 17 C-15.33 16.34 -15.66 15.68 -16 15 C-16.37125 15.495 -16.7425 15.99 -17.125 16.5 C-19.74694393 18.59755514 -21.73842472 18.21743835 -25 18 C-25 14.7 -25 11.4 -25 8 C-24.030625 8.061875 -23.06125 8.12375 -22.0625 8.1875 C-18.85054054 8.21356052 -16.3821625 7.54566709 -13.375 6.4375 C-9.87097923 5.15568727 -7.63718594 4.70938563 -4 6 C-4 5.01 -4 4.02 -4 3 C-3.01 2.67 -2.02 2.34 -1 2 C-0.67 1.34 -0.34 0.68 0 0 Z " transform="translate(162 339)" class="svgShape color383838-4 selectable"></path><path fill="#e5e5e6" d="M0 0 C1.1446875 0.3403125 1.1446875 0.3403125 2.3125 0.6875 C2.6425 2.0075 2.9725 3.3275 3.3125 4.6875 C4.4571875 4.56375 4.4571875 4.56375 5.625 4.4375 C6.9553125 4.56125 6.9553125 4.56125 8.3125 4.6875 C8.786875 5.326875 9.26125 5.96625 9.75 6.625 C11.20452668 9.01650142 11.20452668 9.01650142 14.375 9.3125 C15.344375 9.43625 16.31375 9.56 17.3125 9.6875 C17.9725 10.3475 18.6325 11.0075 19.3125 11.6875 C21.30672795 12.05378677 23.30703311 12.38881344 25.3125 12.6875 C26.3125 13.6875 26.3125 13.6875 26.5 16.625 C26.3125 19.6875 26.3125 19.6875 24.3125 21.6875 C21.1875 21.8125 21.1875 21.8125 18.3125 21.6875 C17.9825 20.3675 17.6525 19.0475 17.3125 17.6875 C16.9825 18.3475 16.6525 19.0075 16.3125 19.6875 C15.3225 19.6875 14.3325 19.6875 13.3125 19.6875 C12.9825 18.6975 12.6525 17.7075 12.3125 16.6875 C10.9925 17.0175 9.6725 17.3475 8.3125 17.6875 C8.6425 16.3675 8.9725 15.0475 9.3125 13.6875 C7.9203125 14.0278125 7.9203125 14.0278125 6.5 14.375 C3.3125 14.6875 3.3125 14.6875 1.4375 13.375 C0.3125 11.6875 0.3125 11.6875 0.3125 9.6875 C-0.491875 9.543125 -1.29625 9.39875 -2.125 9.25 C-4.6875 8.6875 -4.6875 8.6875 -5.6875 7.6875 C-5.9857732 4.85390458 -6.04352594 3.24964622 -4.5 0.8125 C-2.6875 -0.3125 -2.6875 -0.3125 0 0 Z M-1.6875 2.6875 C-2.0175 4.0075 -2.3475 5.3275 -2.6875 6.6875 C-0.7075 7.6775 -0.7075 7.6775 1.3125 8.6875 C1.9725 7.3675 2.6325 6.0475 3.3125 4.6875 C0.8375 3.6975 0.8375 3.6975 -1.6875 2.6875 Z M4.3125 7.6875 C3.9825 8.6775 3.6525 9.6675 3.3125 10.6875 C4.6325 10.6875 5.9525 10.6875 7.3125 10.6875 C7.3125 9.6975 7.3125 8.7075 7.3125 7.6875 C6.3225 7.6875 5.3325 7.6875 4.3125 7.6875 Z M21.3125 14.6875 C20.9825 16.0075 20.6525 17.3275 20.3125 18.6875 C21.3025 18.6875 22.2925 18.6875 23.3125 18.6875 C23.3125 17.3675 23.3125 16.0475 23.3125 14.6875 C22.6525 14.6875 21.9925 14.6875 21.3125 14.6875 Z " transform="translate(100.688 333.313)" class="svgShape color353535-5 selectable"></path><path fill="#e5e5e6" d="M0 0 C0.66 0 1.32 0 2 0 C4.125 6.75 4.125 6.75 3 9 C3.66 9 4.32 9 5 9 C5.73080266 10.97746603 6.39421747 12.98072489 7 15 C6.67 15.66 6.34 16.32 6 17 C6.66 17.33 7.32 17.66 8 18 C8 19.98 8 21.96 8 24 C7.34 24 6.68 24 6 24 C6.66 24.99 7.32 25.98 8 27 C7.67 27.99 7.34 28.98 7 30 C4.36 29.01 1.72 28.02 -1 27 C-1 25.68 -1 24.36 -1 23 C-0.34 22.67 0.32 22.34 1 22 C0.01 22 -0.98 22 -2 22 C-1.835 21.360625 -1.67 20.72125 -1.5 20.0625 C-0.96073333 18.19173179 -0.96073333 18.19173179 -1 17 C-1.66 17 -2.32 17 -3 17 C-3 16.01 -3 15.02 -3 14 C-2.34 13.67 -1.68 13.34 -1 13 C-1.61875 12.938125 -2.2375 12.87625 -2.875 12.8125 C-5 12 -5 12 -6.25 9.6875 C-7 7 -7 7 -7 3 C-5.5459375 2.5359375 -5.5459375 2.5359375 -4.0625 2.0625 C-1.15934208 1.30476658 -1.15934208 1.30476658 0 0 Z M-1 3 C0 5 0 5 0 5 Z M-4 5 C-3 7 -3 7 -3 7 Z " transform="translate(247 245)" class="svgShape color313131-6 selectable"></path><path fill="#e5e5e6" d="M0 0 C0.99 0 1.98 0 3 0 C3.103125 0.639375 3.20625 1.27875 3.3125 1.9375 C3.539375 2.618125 3.76625 3.29875 4 4 C4.99 4.33 5.98 4.66 7 5 C7 3.35 7 1.7 7 0 C7.804375 0.185625 8.60875 0.37125 9.4375 0.5625 C10.283125 0.706875 11.12875 0.85125 12 1 C12.33 0.67 12.66 0.34 13 0 C15.33297433 -0.04092937 17.66705225 -0.04241723 20 0 C20.33 0.66 20.66 1.32 21 2 C20.67 2.66 20.34 3.32 20 4 C18.68 4 17.36 4 16 4 C17.65 4.66 19.3 5.32 21 6 C21.04254356 7.99954746 21.04080783 10.00041636 21 12 C20 13 20 13 17.05859375 13.09765625 C15.26615234 13.08025391 15.26615234 13.08025391 13.4375 13.0625 C11.64119141 13.04896484 11.64119141 13.04896484 9.80859375 13.03515625 C8.88175781 13.02355469 7.95492187 13.01195313 7 13 C7 11.35 7 9.7 7 8 C5.68 8 4.36 8 3 8 C3 9.65 3 11.3 3 13 C2.01 13 1.02 13 0 13 C0 8.71 0 4.42 0 0 Z M11 5 C11 6.98 11 8.96 11 11 C11.33 10.34 11.66 9.68 12 9 C14.97 9.495 14.97 9.495 18 10 C17.67 9.34 17.34 8.68 17 8 C15.66923011 7.65657551 14.33568021 7.32380126 13 7 C12.34 6.34 11.68 5.68 11 5 Z " transform="translate(131 113)" class="svgShape color363636-7 selectable"></path><path fill="#e5e5e6" d="M0 0 C1.65 0 3.3 0 5 0 C5 0.66 5 1.32 5 2 C5.99 2.66 6.98 3.32 8 4 C7.67 5.65 7.34 7.3 7 9 C5.35 9.33 3.7 9.66 2 10 C2 9.01 2 8.02 2 7 C1.34 6.67 0.68 6.34 0 6 C0.33 7.98 0.66 9.96 1 12 C-0.65 11.67 -2.3 11.34 -4 11 C-4 11.99 -4 12.98 -4 14 C-4.99 13.67 -5.98 13.34 -7 13 C-8.4477922 10.10441559 -9 8.25811062 -9 5 C-6.525 5.495 -6.525 5.495 -4 6 C-4 5.01 -4 4.02 -4 3 C-3.01 2.67 -2.02 2.34 -1 2 C-0.67 1.34 -0.34 0.68 0 0 Z " transform="translate(162 339)" class="svgShape color282828-8 selectable"></path><path fill="#e5e5e6" d="M0 0 C1.98 0 3.96 0 6 0 C5.66649674 6.33656203 4.37832913 10.31797174 0 15 C-3 17 -3 17 -5 16.8125 C-7.24469451 15.90059285 -8.42203265 14.81466246 -10 13 C-9.071875 12.443125 -8.14375 11.88625 -7.1875 11.3125 C-2.94151178 8.23207717 -0.95323983 5.14749509 0 0 Z " transform="translate(129 291)" class="svgShape color212121-9 selectable"></path><path fill="#e5e5e6" d="M0 0 C1.32 0 2.64 0 4 0 C4.33 2.64 4.66 5.28 5 8 C5.66 6.02 6.32 4.04 7 2 C8.65 2 10.3 2 12 2 C12 5 12 8 12 11 C7.99068358 12.60372657 4.94176618 11.38691773 1 10 C0.34 9.34 -0.32 8.68 -1 8 C-1.99 8.495 -1.99 8.495 -3 9 C-3.66 8.34 -4.32 7.68 -5 7 C-4.26708288 5.8225266 -3.51296199 4.65823146 -2.75 3.5 C-2.33234375 2.8503125 -1.9146875 2.200625 -1.484375 1.53125 C-0.74960937 0.77328125 -0.74960937 0.77328125 0 0 Z " transform="translate(47 300)" class="svgShape color292929-10 selectable"></path><path fill="#e5e5e6" d="M0 0 C0.99 0.33 1.98 0.66 3 1 C2.67 2.32 2.34 3.64 2 5 C2.66 5 3.32 5 4 5 C4 4.34 4 3.68 4 3 C4.66 3 5.32 3 6 3 C6 4.32 6 5.64 6 7 C7.32 7.33 8.64 7.66 10 8 C10.33 9.32 10.66 10.64 11 12 C10.01 12 9.02 12 8 12 C7.67 13.32 7.34 14.64 7 16 C5.35 15.67 3.7 15.34 2 15 C1.67 13.68 1.34 12.36 1 11 C1.66 11 2.32 11 3 11 C3 10.01 3 9.02 3 8 C1.35 8.66 -0.3 9.32 -2 10 C-1.67 8.35 -1.34 6.7 -1 5 C-1.99 5.33 -2.98 5.66 -4 6 C-4.33 5.01 -4.66 4.02 -5 3 C-2.6875 1.4375 -2.6875 1.4375 0 0 Z " transform="translate(25 282)" class="svgShape color2e2e2e-11 selectable"></path><path fill="#e5e5e6" d="M0 0 C1.98 0 3.96 0 6 0 C5.66682343 6.33035474 4.42711473 10.35410344 0 15 C-2.3125 16.4375 -2.3125 16.4375 -4 17 C-5.32 15.35 -6.64 13.7 -8 12 C-6.576875 10.9790625 -6.576875 10.9790625 -5.125 9.9375 C-1.5622062 7.01332019 -0.8726412 4.4504701 0 0 Z " transform="translate(121 286)" class="svgShape color1f1f1f-12 selectable"></path><path fill="#e5e5e6" d="M0 0 C2.9375 1.1875 2.9375 1.1875 6 3 C6.9375 5.5625 6.9375 5.5625 7 8 C6.67 8.66 6.34 9.32 6 10 C-0.75 9.125 -0.75 9.125 -3 8 C-3.33 9.65 -3.66 11.3 -4 13 C-3.01 13.33 -2.02 13.66 -1 14 C-1 13.34 -1 12.68 -1 12 C-0.01 12 0.98 12 2 12 C1.125 15.875 1.125 15.875 0 17 C-2.4375 17.1875 -2.4375 17.1875 -5 17 C-7 15 -7 15 -7.4375 12.1875 C-6.86588806 8.02289871 -5.13624593 6.66580904 -2 4 C-0.02 4.99 1.96 5.98 4 7 C4 6.34 4 5.68 4 5 C1.525 4.01 1.525 4.01 -1 3 C-0.67 2.01 -0.34 1.02 0 0 Z " transform="translate(243 283)" class="svgShape color333333-13 selectable"></path><path fill="#e5e5e6" d="M0 0 C4.76132597 4.30055249 4.76132597 4.30055249 5 8 C4.01 9.485 4.01 9.485 3 11 C0.625 11.4375 0.625 11.4375 -2 11 C-4.1875 9 -4.1875 9 -6 7 C-6.66 7 -7.32 7 -8 7 C-7.34 9.31 -6.68 11.62 -6 14 C-6.99 14.33 -7.98 14.66 -9 15 C-9.33 13.02 -9.66 11.04 -10 9 C-11.32 8.67 -12.64 8.34 -14 8 C-14 7.34 -14 6.68 -14 6 C-10.37 5.01 -6.74 4.02 -3 3 C-1.68 4.32 -0.36 5.64 1 7 C0.34 5.02 -0.32 3.04 -1 1 C-0.67 0.67 -0.34 0.34 0 0 Z " transform="translate(233 295)" class="svgShape color353535-14 selectable"></path><path fill="#e5e5e6" d="M0 0 C0.99 0 1.98 0 3 0 C3.103125 0.639375 3.20625 1.27875 3.3125 1.9375 C3.539375 2.618125 3.76625 3.29875 4 4 C4.99 4.33 5.98 4.66 7 5 C7 3.35 7 1.7 7 0 C7.99 0 8.98 0 10 0 C10 4.29 10 8.58 10 13 C9.01 13 8.02 13 7 13 C7 11.35 7 9.7 7 8 C5.68 8 4.36 8 3 8 C3 9.65 3 11.3 3 13 C2.01 13 1.02 13 0 13 C0 8.71 0 4.42 0 0 Z " transform="translate(131 113)" class="svgShape color111111-15 selectable"></path><path fill="#e5e5e6" d="M0 0 C2.97 0.99 5.94 1.98 9 3 C8.34 5.97 7.68 8.94 7 12 C0.06640625 10.6328125 0.06640625 10.6328125 -2 10 C-2.33 9.34 -2.66 8.68 -3 8 C-2.01 7.01 -1.02 6.02 0 5 C-0.33 4.01 -0.66 3.02 -1 2 C-0.67 1.34 -0.34 0.68 0 0 Z " transform="translate(246 273)" class="svgShape color2d2d2d-16 selectable"></path><path fill="#e5e5e6" d="M0 0 C0 0.99 0 1.98 0 3 C0.639375 3.103125 1.27875 3.20625 1.9375 3.3125 C2.618125 3.539375 3.29875 3.76625 4 4 C4.33 4.99 4.66 5.98 5 7 C4.01 8.485 4.01 8.485 3 10 C1.68 10 0.36 10 -1 10 C-1 9.34 -1 8.68 -1 8 C-1.33 8.33 -1.66 8.66 -2 9 C-1.59070014 11.05396726 -1.59070014 11.05396726 -1 13 C-1.99 13 -2.98 13 -4 13 C-8 7.74285714 -8 7.74285714 -8 5 C-7.01 5 -6.02 5 -5 5 C-4.87625 4.360625 -4.7525 3.72125 -4.625 3.0625 C-4.41875 2.381875 -4.2125 1.70125 -4 1 C-2 0 -2 0 0 0 Z " transform="translate(175 331)" class="svgShape color2c2c2c-17 selectable"></path><path fill="#e5e5e6" d="M0 0 C1.50539661 0.94983358 3.00420347 1.91011891 4.5 2.875 C5.3353125 3.40867187 6.170625 3.94234375 7.03125 4.4921875 C7.6809375 4.98976563 8.330625 5.48734375 9 6 C9 6.66 9 7.32 9 8 C7.68 8 6.36 8 5 8 C4.34 9.65 3.68 11.3 3 13 C2.01 12.67 1.02 12.34 0 12 C0.5259375 11.1028125 0.5259375 11.1028125 1.0625 10.1875 C2.33304698 7.89186786 2.33304698 7.89186786 1 5 C0.071875 5.99 0.071875 5.99 -0.875 7 C-3 9 -3 9 -5 9 C-4.42647107 5.12867972 -2.51295648 2.91827204 0 0 Z " transform="translate(37 293)" class="svgShape color434343-18 selectable"></path><path fill="#e5e5e6" d="M0 0 C5.875 0.875 5.875 0.875 7 2 C7.1875 4.9375 7.1875 4.9375 7 8 C5 10 5 10 1.875 10.125 C0.451875 10.063125 0.451875 10.063125 -1 10 C-2.46726798 6.18510326 -1.43336419 3.70988378 0 0 Z M2 3 C1.67 4.32 1.34 5.64 1 7 C1.99 7 2.98 7 4 7 C4 5.68 4 4.36 4 3 C3.34 3 2.68 3 2 3 Z " transform="translate(120 345)" class="svgShape color323232-19 selectable"></path><path fill="#e5e5e6" d="M0 0 C3.27310883 0.20892184 5.32433057 0.43694214 7.875 2.5625 C8.431875 3.2740625 8.431875 3.2740625 9 4 C6.50935112 4.68707555 4.62113708 5 2 5 C4.475 5.99 4.475 5.99 7 7 C7 7.99 7 8.98 7 10 C3.26512223 9.5020163 1.18762365 9.12508244 -2 7 C-2.3125 4.5 -2.3125 4.5 -2 2 C-1.34 1.34 -0.68 0.68 0 0 Z " transform="translate(25 244)" class="svgShape color363636-20 selectable"></path><path fill="#e5e5e6" d="M0 0 C0.99 0 1.98 0 3 0 C3 2.31 3 4.62 3 7 C3.66 7 4.32 7 5 7 C5 4.69 5 2.38 5 0 C5.99 0 6.98 0 8 0 C8.25 6.625 8.25 6.625 6 10 C3.4375 10.25 3.4375 10.25 1 10 C0 9 0 9 -0.09765625 6.93359375 C-0.08605469 6.10988281 -0.07445313 5.28617187 -0.0625 4.4375 C-0.05347656 3.61121094 -0.04445313 2.78492188 -0.03515625 1.93359375 C-0.02355469 1.29550781 -0.01195313 0.65742188 0 0 Z " transform="translate(128 347)" class="svgShape color343434-21 selectable"></path><path fill="#e5e5e6" d="M0 0 C1.32 0 2.64 0 4 0 C4 0.66 4 1.32 4 2 C4.99 2.33 5.98 2.66 7 3 C7 3.66 7 4.32 7 5 C6.01 5 5.02 5 4 5 C4 6.98 4 8.96 4 11 C2.68 10.67 1.36 10.34 0 10 C0 8.35 0 6.7 0 5 C-0.66 5 -1.32 5 -2 5 C-2 4.01 -2 3.02 -2 2 C-1.34 2 -0.68 2 0 2 C0 1.34 0 0.68 0 0 Z " transform="translate(134 102)" class="svgShape color343434-22 selectable"></path><path fill="#e5e5e6" d="M0 0 C1.65 0 3.3 0 5 0 C5 0.66 5 1.32 5 2 C5.99 2.66 6.98 3.32 8 4 C7.67 5.65 7.34 7.3 7 9 C5.35 9.33 3.7 9.66 2 10 C2 9.01 2 8.02 2 7 C0.05990478 5.29467677 0.05990478 5.29467677 -2 4 C-1.34 2.68 -0.68 1.36 0 0 Z " transform="translate(162 339)" class="svgShape color2a2a2a-23 selectable"></path><path fill="#e5e5e6" d="M0 0 C1.1446875 0.3403125 1.1446875 0.3403125 2.3125 0.6875 C2.6425 2.0075 2.9725 3.3275 3.3125 4.6875 C1.6625 4.3575 0.0125 4.0275 -1.6875 3.6875 C-2.0175 4.6775 -2.3475 5.6675 -2.6875 6.6875 C-1.3675 7.3475 -0.0475 8.0075 1.3125 8.6875 C0.9825 9.6775 0.6525 10.6675 0.3125 11.6875 C0.3125 11.0275 0.3125 10.3675 0.3125 9.6875 C-0.491875 9.543125 -1.29625 9.39875 -2.125 9.25 C-4.6875 8.6875 -4.6875 8.6875 -5.6875 7.6875 C-5.9857732 4.85390458 -6.04352594 3.24964622 -4.5 0.8125 C-2.6875 -0.3125 -2.6875 -0.3125 0 0 Z " transform="translate(100.688 333.313)" class="svgShape color484848-24 selectable"></path><path fill="#e5e5e6" d="M0 0 C1.32 0 2.64 0 4 0 C4 4.29 4 8.58 4 13 C2.68 13 1.36 13 0 13 C0 8.71 0 4.42 0 0 Z " transform="translate(125 113)" class="svgShape color2c2c2c-25 selectable"></path><path fill="#e5e5e6" d="M0 0 C0 0.99 0 1.98 0 3 C-0.66 3 -1.32 3 -2 3 C-1.01 4.485 -1.01 4.485 0 6 C-0.33 6.99 -0.66 7.98 -1 9 C-3.64 8.01 -6.28 7.02 -9 6 C-9 4.68 -9 3.36 -9 2 C-2.25 0 -2.25 0 0 0 Z " transform="translate(255 266)" class="svgShape color1d1d1d-26 selectable"></path><path fill="#e5e5e6" d="M0 0 C2.64 0.99 5.28 1.98 8 3 C8 3.99 8 4.98 8 6 C6.02 6 4.04 6 2 6 C2.33 6.99 2.66 7.98 3 9 C1.35 9 -0.3 9 -2 9 C-2 7.68 -2 6.36 -2 5 C-1.34 4.67 -0.68 4.34 0 4 C0 2.68 0 1.36 0 0 Z " transform="translate(22 252)" class="svgShape color2a2a2a-27 selectable"></path><path fill="#e5e5e6" d="M0 0 C2.5 0.25 2.5 0.25 4.5 2.25 C4.125 4.375 4.125 4.375 3.5 6.25 C1.85 5.26 0.2 4.27 -1.5 3.25 C-1.83 4.9 -2.16 6.55 -2.5 8.25 C-1.84 8.58 -1.18 8.91 -0.5 9.25 C-1.82 9.25 -3.14 9.25 -4.5 9.25 C-4.625 5.875 -4.625 5.875 -4.5 2.25 C-2.5 0.25 -2.5 0.25 0 0 Z " transform="translate(106.5 337.75)" class="svgShape color282828-28 selectable"></path><path fill="#e5e5e6" d="M0 0 C1.9375 0.3125 1.9375 0.3125 4 1 C5 4 5 4 4.0625 6.1875 C3.711875 6.785625 3.36125 7.38375 3 8 C3 7.01 3 6.02 3 5 C1.35 5 -0.3 5 -2 5 C-2 5.66 -2 6.32 -2 7 C-3.32 7 -4.64 7 -6 7 C-6 6.01 -6 5.02 -6 4 C-4.02 3.34 -2.04 2.68 0 2 C0 1.34 0 0.68 0 0 Z " transform="translate(24 258)" class="svgShape color535353-29 selectable"></path><path fill="#e5e5e6" d="M0 0 C1.73662334 3.22515763 2.8905928 6.51329166 4 10 C3.01 10 2.02 10 1 10 C-3 4.74285714 -3 4.74285714 -3 2 C-2.01 2 -1.02 2 0 2 C0 1.34 0 0.68 0 0 Z " transform="translate(170 334)" class="svgShape color3f3f3f-30 selectable"></path><path fill="#e5e5e6" d="M0 0 C2.475 0.99 2.475 0.99 5 2 C5 2.66 5 3.32 5 4 C3.68 4 2.36 4 1 4 C0.34 5.65 -0.32 7.3 -1 9 C-1.99 8.67 -2.98 8.34 -4 8 C-2.68 5.36 -1.36 2.72 0 0 Z " transform="translate(41 297)" class="svgShape color262626-31 selectable"></path><path fill="#e5e5e6" d="M0 0 C0.309375 1.093125 0.61875 2.18625 0.9375 3.3125 C1.58337897 5.55407994 2.2623117 7.7869351 3 10 C2.34 10 1.68 10 1 10 C1 10.66 1 11.32 1 12 C0.34 11.67 -0.32 11.34 -1 11 C-1.40729228 8.67843403 -1.74438677 6.3431213 -2 4 C-2.66 4 -3.32 4 -4 4 C-4 3.01 -4 2.02 -4 1 C-2 0 -2 0 0 0 Z " transform="translate(28 275)" class="svgShape color3e3e3e-32 selectable"></path><path fill="#e5e5e6" d="M0 0 C0.33 0.99 0.66 1.98 1 3 C0.01 3 -0.98 3 -2 3 C-2.33 4.32 -2.66 5.64 -3 7 C-4.65 6.67 -6.3 6.34 -8 6 C-8.33 4.68 -8.66 3.36 -9 2 C-7.02 2.66 -5.04 3.32 -3 4 C-2.67 3.01 -2.34 2.02 -2 1 C-1.34 0.67 -0.68 0.34 0 0 Z " transform="translate(35 291)" class="svgShape color3c3c3c-33 selectable"></path><path fill="#e5e5e6" d="M0 0 C2.75950066 2.49245221 4.62030099 4.20300991 5 8 C4.67 8.66 4.34 9.32 4 10 C3.01 9.67 2.02 9.34 1 9 C0.234375 7.1875 0.234375 7.1875 -0.25 5 C-0.42015625 4.278125 -0.5903125 3.55625 -0.765625 2.8125 C-0.84296875 2.214375 -0.9203125 1.61625 -1 1 C-0.67 0.67 -0.34 0.34 0 0 Z " transform="translate(233 295)" class="svgShape color2a2a2a-34 selectable"></path><path fill="#e5e5e6" d="M0 0 C0.33 1.32 0.66 2.64 1 4 C2.423125 3.9690625 2.423125 3.9690625 3.875 3.9375 C7 4 7 4 9 5 C9 5.99 9 6.98 9 8 C5.26512223 7.5020163 3.18762365 7.12508244 0 5 C-0.1875 2.375 -0.1875 2.375 0 0 Z " transform="translate(23 246)" class="svgShape color3e3e3e-35 selectable"></path><path fill="#e5e5e6" d="M0 0 C2.9375 1.1875 2.9375 1.1875 6 3 C6.875 5.6875 6.875 5.6875 7 8 C4.36 6.35 1.72 4.7 -1 3 C-0.67 2.01 -0.34 1.02 0 0 Z " transform="translate(243 283)" class="svgShape color252525-36 selectable"></path><path fill="#e5e5e6" d="M0 0 C1.32 0.33 2.64 0.66 4 1 C3.67 2.32 3.34 3.64 3 5 C0.69 5.33 -1.62 5.66 -4 6 C-3.67 4.68 -3.34 3.36 -3 2 C-2.34 2 -1.68 2 -1 2 C-0.67 1.34 -0.34 0.68 0 0 Z " transform="translate(108 342)" class="svgShape color4b4b4b-37 selectable"></path><path fill="#e5e5e6" d="M0 0 C1.65 0.33 3.3 0.66 5 1 C5.33 2.32 5.66 3.64 6 5 C3.36 4.67 0.72 4.34 -2 4 C-1.34 2.68 -0.68 1.36 0 0 Z " transform="translate(98 333)" class="svgShape color313131-38 selectable"></path><path fill="#e5e5e6" d="M0 0 C2.625 -0.1875 2.625 -0.1875 5 0 C5 1.98 5 3.96 5 6 C4.01 5.34 3.02 4.68 2 4 C1.01 4.495 1.01 4.495 0 5 C-0.66 4.34 -1.32 3.68 -2 3 C-1.34 2.01 -0.68 1.02 0 0 Z " transform="translate(44 304)" class="svgShape color414141-39 selectable"></path><path fill="#e5e5e6" d="M0 0 C0.33 0 0.66 0 1 0 C1 1.98 1 3.96 1 6 C-0.98 6.99 -0.98 6.99 -3 8 C-3 7.34 -3 6.68 -3 6 C-3.66 5.67 -4.32 5.34 -5 5 C-4.01 5 -3.02 5 -2 5 C-2 4.01 -2 3.02 -2 2 C-1.34 2 -0.68 2 0 2 C0 1.34 0 0.68 0 0 Z " transform="translate(126 347)" class="svgShape color353535-40 selectable"></path><path fill="#e5e5e6" d="M0 0 C0.66 0.33 1.32 0.66 2 1 C1.67 2.65 1.34 4.3 1 6 C-0.32 5.67 -1.64 5.34 -3 5 C-3 3.68 -3 2.36 -3 1 C-2.01 0.67 -1.02 0.34 0 0 Z " transform="translate(249 267)" class="svgShape color2c2c2c-41 selectable"></path><path fill="#e5e5e6" d="M0 0 C2.97 0.495 2.97 0.495 6 1 C6 1.99 6 2.98 6 4 C4.824375 3.9690625 4.824375 3.9690625 3.625 3.9375 C1.01885039 3.81315937 1.01885039 3.81315937 -1 5 C-0.67 3.35 -0.34 1.7 0 0 Z " transform="translate(120 345)" class="svgShape color212121-42 selectable"></path><path fill="#e5e5e6" d="M0 0 C1.65 0 3.3 0 5 0 C5 1.98 5 3.96 5 6 C3.68 5.67 2.36 5.34 1 5 C1.66 4.34 2.32 3.68 3 3 C2.01 2.67 1.02 2.34 0 2 C0 1.34 0 0.68 0 0 Z " transform="translate(22 263)" class="svgShape color151515-43 selectable"></path><path fill="#e5e5e6" d="M0 0 C1.65 0 3.3 0 5 0 C5 1.32 5 2.64 5 4 C3.35 4 1.7 4 0 4 C0 2.68 0 1.36 0 0 Z " transform="translate(20 257)" class="svgShape color232323-44 selectable"></path><path fill="#e5e5e6" d="M0 0 C1.65 0.33 3.3 0.66 5 1 C4.67 1.99 4.34 2.98 4 4 C2.35 4.33 0.7 4.66 -1 5 C-0.67 3.35 -0.34 1.7 0 0 Z " transform="translate(165 344)" class="svgShape color464646-45 selectable"></path><path fill="#e5e5e6" d="M0 0 C0.99 0.33 1.98 0.66 3 1 C2.67 1.99 2.34 2.98 2 4 C1.34 3.67 0.68 3.34 0 3 C0 3.99 0 4.98 0 6 C-0.66 6 -1.32 6 -2 6 C-1.125 1.125 -1.125 1.125 0 0 Z " transform="translate(32 289)" class="svgShape color1b1b1b-46 selectable"></path><path fill="#e5e5e6" d="M0 0 C0.33 0.99 0.66 1.98 1 3 C-0.375 4.5 -0.375 4.5 -2 6 C-2.66 6 -3.32 6 -4 6 C-3.6875 4.125 -3.6875 4.125 -3 2 C-2.01 1.34 -1.02 0.68 0 0 Z " transform="translate(36 296)" class="svgShape color212121-47 selectable"></path><path fill="#e5e5e6" d="M0 0 C1.65 0.33 3.3 0.66 5 1 C4.67 1.99 4.34 2.98 4 4 C2.35 3.67 0.7 3.34 -1 3 C-0.67 2.01 -0.34 1.02 0 0 Z " transform="translate(147 113)" class="svgShape color282828-48 selectable"></path></svg></g></svg>