<svg id="SvgjsSvg1001" width="288" height="288" xmlns="http://www.w3.org/2000/svg" version="1.1" xmlns:xlink="http://www.w3.org/1999/xlink" xmlns:svgjs="http://svgjs.com/svgjs"><defs id="SvgjsDefs1002"></defs><g id="SvgjsG1008"><svg xmlns="http://www.w3.org/2000/svg" viewBox="0 0 175 249" width="288" height="288"><path fill="#e5e5e6" d="M0 0 C57.09 0 114.18 0 173 0 C173.103125 24.811875 173.20625 49.62375 173.3125 75.1875 C173.35802002 83.0046167 173.40354004 90.8217334 173.45043945 98.87573242 C173.47302246 108.4654541 173.47302246 108.4654541 173.47721863 112.96333313 C173.48185285 116.08627807 173.50049236 119.2087925 173.52787781 122.33161926 C173.56246289 126.32909139 173.57240337 130.32594774 173.56536138 134.32355559 C173.56683139 135.78182995 173.57657501 137.24012836 173.59607565 138.69827306 C173.84595439 158.31190884 164.62450783 173.38359866 151.55957031 187.41552734 C134.27287466 204.97824726 110.76424295 213.64551118 86.375 214.375 C64.45035046 214.35096567 42.69324257 206.02592015 26 192 C25.27167969 191.41734375 24.54335938 190.8346875 23.79296875 190.234375 C10.90775183 179.49293322 2.84623986 166.52987421 0 150 C-0.38435147 144.91560187 -0.38202616 139.8499541 -0.34057617 134.75463867 C-0.3396547 133.25120981 -0.34006184 131.74777966 -0.34167194 130.24435139 C-0.34234256 126.25873708 -0.32509734 122.27339913 -0.30384064 118.28784943 C-0.28661329 114.53259009 -0.28594361 110.77739418 -0.28381348 107.02209473 C-0.2681414 96.07719395 -0.22625758 85.13234337 -0.1875 74.1875 C-0.125625 49.705625 -0.06375 25.22375 0 0 Z M4 4 C4 50.2 4 96.4 4 144 C7.36351222 140.63648778 10.36157445 137.48587436 13.3125 133.8125 C14.35857422 132.52279297 14.35857422 132.52279297 15.42578125 131.20703125 C17.19356428 129.18044774 17.19356428 129.18044774 17 127 C17.66 127 18.32 127 19 127 C19.3403125 127.81791016 19.3403125 127.81791016 19.6875 128.65234375 C21.40013551 131.71571857 23.60353045 134.00231814 26 136.5625 C28.57444258 139.32029678 30.90636463 141.85954694 33 145 C36.75492877 143.47589059 38.80785724 141.22731235 41.4375 138.1875 C44.50972006 134.65578267 47.66001286 131.28108085 51 128 C61.55808656 139.52164009 61.55808656 139.52164009 66 145 C69.86473719 143.71175427 70.93622873 141.87208652 73.4375 138.6875 C75.63311512 135.90490148 77.74775555 133.24620783 80.28515625 130.76953125 C82.23197433 129.17131596 82.23197433 129.17131596 82 127 C86.02498971 130.90550949 89.68757326 135.03570308 93.3125 139.3125 C93.86228516 139.95767578 94.41207031 140.60285156 94.97851562 141.26757812 C96.32091173 142.84343442 97.66072394 144.42149121 99 146 C103.35439371 145.16654406 104.71131648 143.31354331 107.4375 139.8125 C108.21867187 138.8225 108.99984375 137.8325 109.8046875 136.8125 C110.89136719 135.4203125 110.89136719 135.4203125 112 134 C113.01458275 132.76566891 114.03384574 131.53512906 115.0625 130.3125 C115.701875 129.549375 116.34125 128.78625 117 128 C122.37617324 132.14710709 126.08609927 136.78272273 130.03125 142.26757812 C131.54489001 144.34392366 131.54489001 144.34392366 134 147 C137.82977062 147.42554353 137.82977062 147.42554353 139.58398438 145.68652344 C140.08220703 145.08356445 140.58042969 144.48060547 141.09375 143.859375 C141.64933594 143.20066406 142.20492187 142.54195312 142.77734375 141.86328125 C143.34582031 141.16589844 143.91429687 140.46851563 144.5 139.75 C145.63413344 138.38955422 146.76951838 137.0301506 147.90625 135.671875 C148.43734375 135.03314453 148.9684375 134.39441406 149.515625 133.73632812 C151.24347922 131.71519339 153.07344012 129.83212067 155 128 C156.79419526 129.93521061 158.58541329 131.8730354 160.375 133.8125 C160.88289062 134.35970703 161.39078125 134.90691406 161.9140625 135.47070312 C164.15216303 137.90022015 166.16379112 140.24568668 168 143 C168.66 143 169.32 143 170 143 C170 97.13 170 51.26 170 4 C115.22 4 60.44 4 4 4 Z M18 137 C16.14286963 139.20292029 14.34246849 141.42352483 12.5625 143.6875 C12.05912109 144.31333984 11.55574219 144.93917969 11.03710938 145.58398438 C7.14715851 150.35162024 7.14715851 150.35162024 5 156 C5.98534249 159.13496423 5.98534249 159.13496423 7.75 162.1875 C8.57757813 163.75564453 8.57757813 163.75564453 9.421875 165.35546875 C10.87863165 168.04186922 10.87863165 168.04186922 13 170 C15.66124045 170.32249219 15.66124045 170.32249219 18.82551575 170.29434204 C20.68674324 170.31580795 20.68674324 170.31580795 22.58557129 170.33770752 C23.96826072 170.34338829 25.35095123 170.34881172 26.73364258 170.35400391 C28.18394118 170.36653131 29.63423334 170.37982474 31.08451843 170.39382935 C35.03086846 170.42866553 38.97717001 170.44975688 42.92363572 170.46624041 C45.38843203 170.47653702 47.85321323 170.4886886 50.31799889 170.50126266 C58.02749133 170.53937087 65.7369454 170.56783245 73.44651395 170.5844866 C82.35042178 170.60403756 91.25333595 170.6566873 100.15689355 170.73748839 C107.03594464 170.79777758 113.91471064 170.82742096 120.79402083 170.83404863 C124.90428985 170.8387537 129.0134977 170.85671983 133.12348366 170.90697098 C136.99071869 170.95348973 140.85619258 170.9620214 144.72363472 170.94144821 C146.14225876 170.94045608 147.56096877 170.953141 148.97932816 170.9805603 C156.48959545 171.40215065 156.48959545 171.40215065 162.91934776 168.27820969 C164.24131328 166.21595989 165.1520724 164.29272917 166 162 C166.55171875 160.85273438 167.1034375 159.70546875 167.671875 158.5234375 C168.16962752 153.17852352 165.55402394 150.61185555 162.25 146.625 C161.68539062 145.90183594 161.12078125 145.17867187 160.5390625 144.43359375 C157.7315877 140.67315252 157.7315877 140.67315252 154 138 C150.7 142.62 147.4 147.24 144 152 C145.98 155.96 145.98 155.96 148 160 C144.06487962 160.39579547 140.78770154 160.18277669 137 159 C132.72659632 155.4720236 129.38933874 151.36174499 126 147 C125.25878906 146.07703125 124.51757812 145.1540625 123.75390625 144.203125 C122.13538356 142.15798969 120.5511409 140.09642252 119 138 C114.44410612 141.21592509 110.63068215 145.05510874 108 150 C108.25816743 152.77058026 108.25816743 152.77058026 110 155 C110.53625 155.928125 111.0725 156.85625 111.625 157.8125 C112.305625 158.8953125 112.305625 158.8953125 113 160 C107.69102678 160.43400351 103.57465734 160.27351849 99.32421875 156.8359375 C96.73937041 153.98175038 94.34970249 151.05035513 92 148 C91.20722656 147.02546875 90.41445312 146.0509375 89.59765625 145.046875 C87.70441151 142.71775142 85.84090191 140.37054687 84 138 C80.17578546 141.72633702 76.64068582 145.61652126 73.1875 149.6875 C72.68541016 150.26822266 72.18332031 150.84894531 71.66601562 151.44726562 C68.90736706 154.32260096 68.90736706 154.32260096 68 158 C63.71 157.67 59.42 157.34 55 157 C57.475 153.535 57.475 153.535 60 150 C59.06692579 148.55962331 58.12834923 147.12281015 57.1875 145.6875 C56.40439453 144.48673828 56.40439453 144.48673828 55.60546875 143.26171875 C54.19610151 141.2762598 52.77903343 139.6508148 51 138 C49.45372815 139.66239503 47.91323998 141.33017017 46.375 143 C45.91279053 143.49604736 45.45058105 143.99209473 44.97436523 144.50317383 C42.30192971 147.41365902 40.11169369 150.32053573 38.0625 153.6875 C36.71484375 155.60546875 36.71484375 155.60546875 35 157 C31.24099313 157.65351302 27.77198075 157.48324309 24 157 C25.65 155.02 27.3 153.04 29 151 C27.63079505 146.96407129 25.80419512 144.32473622 22.9375 141.1875 C22.22464844 140.39730469 21.51179688 139.60710937 20.77734375 138.79296875 C20.19082031 138.20128906 19.60429687 137.60960937 19 137 C18.67 137 18.34 137 18 137 Z M15 173 C18.20877334 179.01012479 18.20877334 179.01012479 22.5 183.375 C23.0671875 183.85710937 23.634375 184.33921875 24.21875 184.8359375 C27.49286415 186.97559981 30.79838296 187.12623455 34.63444519 187.14044189 C36.02414017 187.14900711 36.02414017 187.14900711 37.44190979 187.15774536 C38.95602699 187.15942215 38.95602699 187.15942215 40.50073242 187.16113281 C41.56950623 187.16609772 42.63828003 187.17106262 43.73944092 187.17617798 C47.2781234 187.19079205 50.81676103 187.19760096 54.35546875 187.203125 C56.81683859 187.20887779 59.27820843 187.21463551 61.73957825 187.22039795 C66.90361744 187.23090629 72.06764107 187.23674982 77.23168945 187.24023438 C83.83796933 187.24571373 90.44404254 187.26973079 97.05025768 187.29820633 C102.13672987 187.31686279 107.22315263 187.32203996 112.30965614 187.32357025 C114.74442993 187.32659132 117.17920297 187.33460136 119.6139431 187.34775543 C123.02688518 187.3648757 126.43932691 187.36292062 129.85229492 187.35644531 C131.35123039 187.37026749 131.35123039 187.37026749 132.88044739 187.3843689 C140.13297657 187.34142603 146.90783691 186.57756834 152.62890625 181.80859375 C153.26699219 181.02613281 153.90507812 180.24367187 154.5625 179.4375 C155.55443359 178.25994141 155.55443359 178.25994141 156.56640625 177.05859375 C158.19049168 175.1445577 158.19049168 175.1445577 158 173 C110.81 173 63.62 173 15 173 Z M31 190 C34.90293698 193.98544896 38.77397246 196.35673166 43.6875 198.9375 C44.52385986 199.37698975 45.36021973 199.81647949 46.22192383 200.26928711 C67.91004943 211.29219366 92.35449735 213.05467951 115.57421875 205.8984375 C125.18749237 202.3716744 134.41681012 197.96833665 142 191 C141.505 190.01 141.505 190.01 141 189 C128.87260312 188.97672123 116.74521166 188.95900629 104.6177969 188.94818783 C98.98518008 188.94299276 93.35257866 188.93595718 87.7199707 188.92456055 C82.27346205 188.91361074 76.82696812 188.9076978 71.3804493 188.90512276 C69.31348502 188.90329013 67.24652145 188.899712 65.17956352 188.89426994 C53.73871615 188.86537456 42.4039292 189.01748729 31 190 Z " transform="translate(1 35)" class="svgShape color242424-0 selectable"></path><path fill="#e5e5e6" d="M0 0 C57.09 0 114.18 0 173 0 C172.67 0.99 172.34 1.98 172 3 C170.68 3 169.36 3 168 3 C168 3.66 168 4.32 168 5 C167.34 5 166.68 5 166 5 C166 5.99 166 6.98 166 8 C165.01 8.33 164.02 8.66 163 9 C162.26676204 11.01508358 162.26676204 11.01508358 162 13 C162.598125 13.0825 163.19625 13.165 163.8125 13.25 C166.61087782 14.20944382 167.2555912 15.6741216 169 18 C171.09415804 18.79623822 171.09415804 18.79623822 173 19 C173 19.99 173 20.98 173 22 C115.91 22 58.82 22 0 22 C0 21.01 0 20.02 0 19 C0.639375 18.87625 1.27875 18.7525 1.9375 18.625 C2.618125 18.41875 3.29875 18.2125 4 18 C4.33 17.34 4.66 16.68 5 16 C5.99 16 6.98 16 8 16 C8 15.01 8 14.02 8 13 C8.66 13 9.32 13 10 13 C10 11.35 10 9.7 10 8 C9.34 8 8.68 8 8 8 C6.375 6.625 6.375 6.625 5 5 C5 4.34 5 3.68 5 3 C3.35 3 1.7 3 0 3 C0 2.01 0 1.02 0 0 Z M23 3 C23 3.99 23 4.98 23 6 C21.68 6 20.36 6 19 6 C19 6.99 19 7.98 19 9 C18.01 9 17.02 9 16 9 C16 10.32 16 11.64 16 13 C16.99 13 17.98 13 19 13 C19 13.99 19 14.98 19 16 C20.32 16 21.64 16 23 16 C23.33 16.99 23.66 17.98 24 19 C24.66 18.67 25.32 18.34 26 18 C25.67 16.68 25.34 15.36 25 14 C24.01 14 23.02 14 22 14 C22.3125 11.625 22.3125 11.625 23 9 C23.99 8.34 24.98 7.68 26 7 C25.67 5.68 25.34 4.36 25 3 C24.34 3 23.68 3 23 3 Z M31 3 C31 4.65 31 6.3 31 8 C31.99 8.33 32.98 8.66 34 9 C34 10.32 34 11.64 34 13 C33.01 13.33 32.02 13.66 31 14 C31 15.65 31 17.3 31 19 C32.98 18.01 34.96 17.02 37 16 C37 15.01 37 14.02 37 13 C39.3431213 13.25561323 41.67843403 13.59270772 44 14 C44.33 14.66 44.66 15.32 45 16 C45.99 16 46.98 16 48 16 C48 16.66 48 17.32 48 18 C48.66 18 49.32 18 50 18 C50 16.68 50 15.36 50 14 C49.01 14 48.02 14 47 14 C47.3125 11.625 47.3125 11.625 48 9 C48.99 8.34 49.98 7.68 51 7 C50.67 5.68 50.34 4.36 50 3 C49.34 3 48.68 3 48 3 C48 3.99 48 4.98 48 6 C47.01 6 46.02 6 45 6 C44.67 6.66 44.34 7.32 44 8 C41.67843403 8.40729228 39.3431213 8.74438677 37 9 C37 8.01 37 7.02 37 6 C36.01 6 35.02 6 34 6 C33.67 5.01 33.34 4.02 33 3 C32.34 3 31.68 3 31 3 Z M73.1875 4.875 C70.49998288 8.71431018 70.67923231 10.52314398 71.21484375 15.01171875 C71.84363305 17.13942896 71.84363305 17.13942896 73.81640625 18.26953125 C76.24847318 19.21149699 76.24847318 19.21149699 80 19 C80 18.34 80 17.68 80 17 C79.195625 16.401875 78.39125 15.80375 77.5625 15.1875 C74.70289198 12.7463712 74.3046813 11.65617562 74 8 C74.66 8 75.32 8 76 8 C76 7.34 76 6.68 76 6 C77.32 5.34 78.64 4.68 80 4 C76.8526058 2.48458798 76.16139662 2.89240225 73.1875 4.875 Z M93 3 C93.99 3.495 93.99 3.495 95 4 C95 4.66 95 5.32 95 6 C95.66 6 96.32 6 97 6 C97 9.3 97 12.6 97 16 C95.02 16.99 95.02 16.99 93 18 C95.60582371 18.93065133 96.64198224 19.14917407 99.25 18.0625 C99.8275 17.711875 100.405 17.36125 101 17 C101 15.741875 101 14.48375 101 13.1875 C101 10.79166667 101 8.39583333 101 6 C99.87640419 4.20918882 99.87640419 4.20918882 98 3 C95.37429296 2.74930087 95.37429296 2.74930087 93 3 Z M122 3 C122 4.65 122 6.3 122 8 C123.32 8 124.64 8 126 8 C126 9.98 126 11.96 126 14 C124.68 14.33 123.36 14.66 122 15 C122 15.99 122 16.98 122 18 C122.99 18 123.98 18 125 18 C125 17.34 125 16.68 125 16 C125.99 16 126.98 16 128 16 C128.33 15.34 128.66 14.68 129 14 C131.32156597 13.59270772 133.6568787 13.25561323 136 13 C136 13.99 136 14.98 136 16 C137.32 16 138.64 16 140 16 C140.33 16.99 140.66 17.98 141 19 C141.33 17.35 141.66 15.7 142 14 C141.01 14 140.02 14 139 14 C139 12.02 139 10.04 139 8 C139.99 8 140.98 8 142 8 C142 6.35 142 4.7 142 3 C141.34 3 140.68 3 140 3 C139.67 3.66 139.34 4.32 139 5 C138.01 5.33 137.02 5.66 136 6 C136 6.99 136 7.98 136 9 C133.69 9 131.38 9 129 9 C129 8.01 129 7.02 129 6 C127.68 6 126.36 6 125 6 C125 5.01 125 4.02 125 3 C124.01 3 123.02 3 122 3 Z M148 3 C148 4.65 148 6.3 148 8 C148.99 8 149.98 8 151 8 C151 9.98 151 11.96 151 14 C150.01 14 149.02 14 148 14 C148 15.32 148 16.64 148 18 C148.66 18 149.32 18 150 18 C150 17.34 150 16.68 150 16 C151.32 16 152.64 16 154 16 C155.83333333 14.83333333 155.83333333 14.83333333 157 13 C157.38749213 9.18405876 157.38749213 9.18405876 155.75 7.25 C153.81594124 5.61250787 153.81594124 5.61250787 150 6 C150 5.01 150 4.02 150 3 C149.34 3 148.68 3 148 3 Z M56 4 C56.34786708 5.97536745 56.34786708 5.97536745 57 8 C57.66 8.33 58.32 8.66 59 9 C59 10.65 59 12.3 59 14 C58.01 14 57.02 14 56 14 C56 15.65 56 17.3 56 19 C56.66 19 57.32 19 58 19 C58.33 18.34 58.66 17.68 59 17 C59.99 16.67 60.98 16.34 62 16 C62 15.01 62 14.02 62 13 C63.32 13 64.64 13 66 13 C66 11.68 66 10.36 66 9 C64.68 9 63.36 9 62 9 C62 8.01 62 7.02 62 6 C60.68 6 59.36 6 58 6 C58 5.34 58 4.68 58 4 C57.34 4 56.68 4 56 4 Z M115 4 C115 4.66 115 5.32 115 6 C113.68 6 112.36 6 111 6 C111 6.99 111 7.98 111 9 C109.68 9 108.36 9 107 9 C107 10.32 107 11.64 107 13 C107.99 13.33 108.98 13.66 110 14 C110.33 14.66 110.66 15.32 111 16 C112.32 16 113.64 16 115 16 C115 16.99 115 17.98 115 19 C115.66 19 116.32 19 117 19 C117 17.35 117 15.7 117 14 C116.01 14 115.02 14 114 14 C114 12.02 114 10.04 114 8 C114.99 8 115.98 8 117 8 C117 6.68 117 5.36 117 4 C116.34 4 115.68 4 115 4 Z M84 6 C84 6.66 84 7.32 84 8 C83.34 8 82.68 8 82 8 C81.83318891 10.91652174 81.83318891 10.91652174 82 14 C82.66 14.66 83.32 15.32 84 16 C86.54713404 15.99077298 86.54713404 15.99077298 89 15 C90.57540068 13.26596664 90.57540068 13.26596664 91 11 C90.57540068 8.73403336 90.57540068 8.73403336 89 7 C86.44480079 6.18828772 86.44480079 6.18828772 84 6 Z " transform="translate(1 7)" class="svgShape color1d1d1d-1 selectable"></path><path fill="#e5e5e6" d="M0 0 C2.00720923 0.28674418 4.0085944 0.61866701 6 1 C9.956921 13.26509534 13.61727019 25.56349334 17 38 C17.33 25.79 17.66 13.58 18 1 C20.73247348 -0.36623674 22.98198902 -0.128426 26 0 C27 1 27 1 27.12304783 2.731637 C27.12166514 3.86959044 27.12166514 3.86959044 27.12025452 5.03053284 C27.12162918 5.89856537 27.12300385 6.7665979 27.12442017 7.66093445 C27.12082489 8.62046524 27.11722961 9.57999603 27.11352539 10.56860352 C27.11367142 11.57336731 27.11381744 12.5781311 27.1139679 13.61334229 C27.1132683 16.95188517 27.10547374 20.29037305 27.09765625 23.62890625 C27.09579224 25.93676218 27.09436826 28.24461851 27.09336853 30.55247498 C27.08954204 36.64017826 27.07971065 42.72785786 27.06866455 48.81555176 C27.05845323 55.02221354 27.05387151 61.22887913 27.04882812 67.43554688 C27.0380885 79.62370835 27.02101052 91.81185221 27 104 C24.36 104 21.72 104 19 104 C15.66101926 97.16793172 14.09310022 89.92460524 12.3125 82.5625 C11.219375 78.086875 10.12625 73.61125 9 69 C8.67 80.55 8.34 92.1 8 104 C5.03 104 2.06 104 -1 104 C-1.0231207 90.58774207 -1.04091369 77.17548883 -1.05181217 63.76321507 C-1.0570416 57.53606528 -1.06414033 51.30892908 -1.07543945 45.08178711 C-1.08626621 39.07773135 -1.09227638 33.07368871 -1.09487724 27.06962395 C-1.09673188 24.7733839 -1.10035321 22.47714461 -1.10573006 20.18091011 C-1.11293768 16.97679186 -1.11399106 13.7727285 -1.11352539 10.56860352 C-1.11712067 9.60907272 -1.12071594 8.64954193 -1.12442017 7.66093445 C-1.1230455 6.79290192 -1.12167084 5.92486938 -1.12025452 5.03053284 C-1.12117631 4.27189721 -1.1220981 3.51326159 -1.12304783 2.731637 C-1 1 -1 1 0 0 Z " transform="translate(58 47)" class="svgShape color171717-2 selectable"></path><path fill="#e5e5e6" d="M0 0 C1.64742187 -0.05607422 1.64742187 -0.05607422 3.328125 -0.11328125 C4.3903125 -0.12488281 5.4525 -0.13648438 6.546875 -0.1484375 C7.51979492 -0.16825684 8.49271484 -0.18807617 9.49511719 -0.20849609 C13.62524272 0.66628235 14.87602108 1.86160688 17.25 5.375 C17.96844863 9.43091091 17.90270495 13.42571023 17.84375 17.53515625 C17.84379028 18.71718124 17.84383057 19.89920624 17.84387207 21.11705017 C17.8385165 23.61267421 17.82093254 26.10829779 17.79199219 28.60375977 C17.75011372 32.4271181 17.75092632 36.24871647 17.7578125 40.07226562 C17.74732094 42.49740809 17.73438303 44.92254147 17.71875 47.34765625 C17.71854858 48.49250992 17.71834717 49.63736359 17.71813965 50.81690979 C17.69427185 52.41392982 17.69427185 52.41392982 17.66992188 54.04321289 C17.66150269 54.97855362 17.6530835 55.91389435 17.64440918 56.87757874 C17.18450791 59.78969965 16.18177231 61.1902356 14.25 63.375 C14.559375 63.99375 14.86875 64.6125 15.1875 65.25 C17.23496151 69.34492302 17.37962055 72.46588796 17.34765625 77.0078125 C17.3462413 77.75964813 17.34482635 78.51148376 17.34336853 79.28610229 C17.33776465 81.6907751 17.32521157 84.09535527 17.3125 86.5 C17.3074855 88.12890491 17.3029225 89.75781127 17.29882812 91.38671875 C17.28779397 95.38284827 17.27052679 99.37890842 17.25 103.375 C13.95 103.375 10.65 103.375 7.25 103.375 C7.23598145 101.9523584 7.23598145 101.9523584 7.22167969 100.50097656 C7.17760769 96.97435242 7.11597217 93.44893797 7.04248047 89.92285156 C7.01429465 88.39822569 6.99306811 86.87345434 6.97900391 85.34863281 C6.95753951 83.15354064 6.91087831 80.96019289 6.859375 78.765625 C6.83842773 77.44594727 6.81748047 76.12626953 6.79589844 74.76660156 C6.16747175 70.8622619 5.41936496 69.66841685 2.25 67.375 C0.1118034 66.5877322 0.1118034 66.5877322 -1.75 66.375 C-1.74476318 67.46031006 -1.73952637 68.54562012 -1.73413086 69.66381836 C-1.71608164 73.67617982 -1.70456829 77.68853767 -1.69506836 81.70092773 C-1.69002796 83.44019168 -1.6831957 85.17945136 -1.67456055 86.91870117 C-1.66248208 89.41325937 -1.65676892 91.90776173 -1.65234375 94.40234375 C-1.64718246 95.18463852 -1.64202118 95.96693329 -1.63670349 96.77293396 C-1.63650774 98.64067114 -1.68800306 100.50829204 -1.75 102.375 C-2.75 103.375 -2.75 103.375 -4.78125 103.5078125 C-5.5959375 103.50523437 -6.410625 103.50265625 -7.25 103.5 C-8.0646875 103.50257813 -8.879375 103.50515625 -9.71875 103.5078125 C-11.75 103.375 -11.75 103.375 -12.75 102.375 C-12.85068417 99.24476516 -12.8861416 96.1365508 -12.87939453 93.00585938 C-12.88114685 92.02220901 -12.88289917 91.03855865 -12.88470459 90.02510071 C-12.88912505 86.75629947 -12.88618443 83.48755184 -12.8828125 80.21875 C-12.88348548 77.95812978 -12.88445546 75.69750962 -12.88571167 73.43688965 C-12.88718891 68.69213168 -12.88503326 63.94739251 -12.88037109 59.20263672 C-12.8746738 53.10561376 -12.87795266 47.00863481 -12.88394356 40.91161346 C-12.88754848 36.24151271 -12.8864109 31.57142247 -12.88381577 26.90132141 C-12.8831463 24.65253189 -12.88397558 22.40374143 -12.88629532 20.154953 C-12.88882071 17.01798962 -12.88498285 13.88109859 -12.87939453 10.74414062 C-12.88141876 9.80488235 -12.88344299 8.86562408 -12.88552856 7.89790344 C-12.85268552 -1.99940627 -8.78239699 0.11181292 0 0 Z M-1.75 9.375 C-1.91802786 15.60447939 -2.07795472 21.83412849 -2.23217773 28.06396484 C-2.28563685 30.18445577 -2.34096917 32.30490031 -2.39819336 34.42529297 C-2.47999523 37.46832272 -2.55511898 40.5114542 -2.62890625 43.5546875 C-2.65594131 44.50681122 -2.68297638 45.45893494 -2.71083069 46.43991089 C-2.73092697 47.32067291 -2.75102325 48.20143494 -2.77172852 49.10888672 C-2.79171402 49.88610077 -2.81169952 50.66331482 -2.83229065 51.46408081 C-2.8765296 53.46220589 -2.8765296 53.46220589 -1.75 55.375 C2.25254456 55.46681134 2.25254456 55.46681134 6.25 55.375 C8.41344945 53.21155055 7.43899476 48.20140295 7.453125 45.1953125 C7.45882507 44.27160858 7.46452515 43.34790466 7.47039795 42.39620972 C7.47986345 40.43749137 7.48638806 38.47875698 7.49023438 36.52001953 C7.4999367 33.51957452 7.53094401 30.5198152 7.5625 27.51953125 C7.56903002 25.61979575 7.5742805 23.72005533 7.578125 21.8203125 C7.5904718 20.92023468 7.6028186 20.02015686 7.61553955 19.09280396 C7.61253845 18.25538666 7.60953735 17.41796936 7.60644531 16.55517578 C7.61009094 15.81872833 7.61373657 15.08228088 7.61749268 14.32351685 C7.13978662 11.79062747 6.29864328 10.902628 4.25 9.375 C1.12450983 9.12451364 1.12450983 9.12451364 -1.75 9.375 Z " transform="translate(105.75 47.625)" class="svgShape color1e1e1e-3 selectable"></path><path fill="#e5e5e6" d="M0 0 C3.3 0.33 6.6 0.66 10 1 C10 32.02 10 63.04 10 95 C12.64 95 15.28 95 18 95 C17.99777939 93.83710953 17.99555878 92.67421906 17.99327087 91.47608948 C17.97304088 80.54230632 17.95802855 69.60852694 17.94818783 58.67472935 C17.94295864 53.05292038 17.93586034 47.43112647 17.92456055 41.80932617 C17.91373294 36.38881723 17.90772344 30.9683228 17.90512276 25.54780388 C17.90326828 23.47485055 17.89964723 21.40189806 17.89426994 19.32895088 C17.8870612 16.43616107 17.88600899 13.54343204 17.88647461 10.65063477 C17.88287933 9.78461136 17.87928406 8.91858795 17.87557983 8.02632141 C17.88594784 2.11405216 17.88594784 2.11405216 19 1 C20.68608966 0.92794489 22.37500659 0.91613932 24.0625 0.9375 C24.98160156 0.94652344 25.90070312 0.95554688 26.84765625 0.96484375 C27.55792969 0.97644531 28.26820312 0.98804688 29 1 C29.06952796 13.41318511 29.12282562 25.82632385 29.15543652 38.23966408 C29.17108856 44.00375881 29.19231868 49.76772026 29.22631836 55.53173828 C29.25892786 61.0949268 29.27685649 66.65798716 29.28463173 72.22126389 C29.29017235 74.34313347 29.30099179 76.46499608 29.31719017 78.58681107 C29.33898529 81.56014382 29.34196601 84.5329478 29.34057617 87.50634766 C29.351362 88.3824469 29.36214783 89.25854614 29.3732605 90.16119385 C29.34790469 95.17830045 28.81653664 98.66353959 26 103 C22.23845432 104.88077284 17.70176726 104.22802645 13.5625 104.25 C12.59505859 104.270625 11.62761719 104.29125 10.63085938 104.3125 C9.23770508 104.32023437 9.23770508 104.32023437 7.81640625 104.328125 C6.96506104 104.3374707 6.11371582 104.34681641 5.23657227 104.35644531 C2.51077779 103.92203205 1.68276921 103.14034435 0 101 C-1.72245608 97.55508785 -1.13784976 93.58382391 -1.12939453 89.79272461 C-1.13114685 88.83818893 -1.13289917 87.88365326 -1.13470459 86.90019226 C-1.13911826 83.73422445 -1.13618703 80.56831216 -1.1328125 77.40234375 C-1.13348562 75.21041351 -1.13445572 73.01848333 -1.13571167 70.82655334 C-1.13718794 66.22900686 -1.13503614 61.63147978 -1.13037109 57.03393555 C-1.1246705 51.12639035 -1.12795536 45.21889054 -1.13394356 39.31134701 C-1.13754821 34.78450678 -1.13641108 30.25767741 -1.13381577 25.73083687 C-1.1331464 23.55182452 -1.13397523 21.37281119 -1.13629532 19.19379997 C-1.13882064 16.1551335 -1.13498311 13.11654173 -1.12939453 10.07788086 C-1.13141876 9.16824585 -1.13344299 8.25861084 -1.13552856 7.32141113 C-1.11426301 1.11426301 -1.11426301 1.11426301 0 0 Z " transform="translate(18 47)" class="svgShape color222222-4 selectable"></path><path fill="#e5e5e6" d="M0 0 C3.77195642 -0.66530831 7.61387847 -0.4629138 11.4375 -0.4375 C13.03174805 -0.4674707 13.03174805 -0.4674707 14.65820312 -0.49804688 C15.67720703 -0.49740234 16.69621094 -0.49675781 17.74609375 -0.49609375 C18.68122803 -0.49794678 19.6163623 -0.4997998 20.57983398 -0.50170898 C23 0 23 0 24.80786133 1.76269531 C26.10338522 4.1940246 26.36323684 5.5624179 26.328125 8.29296875 C26.32296875 9.08767578 26.3178125 9.88238281 26.3125 10.70117188 C26.291875 11.52166016 26.27125 12.34214844 26.25 13.1875 C26.24484375 14.01958984 26.2396875 14.85167969 26.234375 15.70898438 C26.15435332 21.84564668 26.15435332 21.84564668 25 23 C21.5625 23.1875 21.5625 23.1875 18 23 C17.34 22.34 16.68 21.68 16 21 C16.0234375 17.9609375 16.0234375 17.9609375 16.375 14.375 C16.48585937 13.18648437 16.59671875 11.99796875 16.7109375 10.7734375 C16.80632812 9.85820313 16.90171875 8.94296875 17 8 C14.03 8 11.06 8 8 8 C8 37.04 8 66.08 8 96 C10.64 95.67 13.28 95.34 16 95 C16.33 90.38 16.66 85.76 17 81 C23.15234375 80.90234375 23.15234375 80.90234375 25 81 C27.15011953 83.15011953 26.18520645 87.89797798 26.1875 90.875 C26.19974609 91.70386719 26.21199219 92.53273438 26.22460938 93.38671875 C26.22750977 94.58361328 26.22750977 94.58361328 26.23046875 95.8046875 C26.23457764 96.53671387 26.23868652 97.26874023 26.24291992 98.02294922 C26 100 26 100 24 103 C19.97810055 104.34063315 16.27337478 104.18417125 12.0625 104.1875 C10.84530273 104.20586914 10.84530273 104.20586914 9.60351562 104.22460938 C8.81783203 104.22654297 8.03214844 104.22847656 7.22265625 104.23046875 C6.50859619 104.23457764 5.79453613 104.23868652 5.05883789 104.24291992 C2.64770107 103.95843265 1.05993104 103.27197316 -1 102 C-2.70770211 98.58459577 -2.14716635 94.67436111 -2.14526367 90.91625977 C-2.14862228 89.97469025 -2.1519809 89.03312073 -2.15544128 88.0630188 C-2.16496876 84.93913467 -2.16689526 81.81530402 -2.16796875 78.69140625 C-2.17117995 76.52668739 -2.17454392 74.36196876 -2.17805481 72.19725037 C-2.18405049 67.65517676 -2.18589425 63.1131222 -2.18530273 58.57104492 C-2.18520106 52.74213256 -2.19885703 46.91334186 -2.21607494 41.08445835 C-2.2271763 36.61243628 -2.22922252 32.14044379 -2.22869301 27.66840935 C-2.2298758 25.51895668 -2.23431422 23.36950332 -2.24202538 21.22006416 C-2.25178816 18.21766688 -2.24896197 15.21553606 -2.24291992 12.21313477 C-2.24853943 11.32004105 -2.25415894 10.42694733 -2.25994873 9.50679016 C-2.25575424 8.68938354 -2.25155975 7.87197693 -2.24723816 7.02980042 C-2.24778293 6.31985208 -2.24832769 5.60990374 -2.24888897 4.87844181 C-2 3 -2 3 0 0 Z " transform="translate(133 48)" class="svgShape color252525-5 selectable"></path><path fill="#e5e5e6" d="M0 0 C56.43 0 112.86 0 171 0 C171.33 1.32 171.66 2.64 172 4 C114.91 4 57.82 4 -1 4 C-0.67 2.68 -0.34 1.36 0 0 Z " transform="translate(2 2)" class="svgShape color212121-6 selectable"></path><path fill="#e5e5e6" d="M0 0 C57.09 0 114.18 0 173 0 C173 0.99 173 1.98 173 3 C115.91 3 58.82 3 0 3 C0 2.01 0 1.02 0 0 Z " transform="translate(1 31)" class="svgShape color131313-7 selectable"></path><path fill="#e5e5e6" d="M0 0 C0.66 0.33 1.32 0.66 2 1 C2 1.99 2 2.98 2 4 C0.3203125 5.38671875 0.3203125 5.38671875 -1.875 6.6875 C-2.59429687 7.12449219 -3.31359375 7.56148437 -4.0546875 8.01171875 C-6 9 -6 9 -8 9 C-6.64531705 4.12314139 -4.28324091 2.51407619 0 0 Z " transform="translate(138 229)" class="svgShape color2e2e2e-8 selectable"></path><path fill="#e5e5e6" d="M0 0 C2.0625 0.4375 2.0625 0.4375 4 1 C4 2.65 4 4.3 4 6 C2.0625 6.5625 2.0625 6.5625 0 7 C-1 6 -1 6 -1.125 3.5 C-1 1 -1 1 0 0 Z " transform="translate(170 15)" class="svgShape color383838-9 selectable"></path><path fill="#e5e5e6" d="M0 0 C1.65 0 3.3 0 5 0 C5 1.98 5 3.96 5 6 C3.35 6 1.7 6 0 6 C0 4.02 0 2.04 0 0 Z " transform="translate(1 15)" class="svgShape color2c2c2c-10 selectable"></path><path fill="#e5e5e6" d="M0 0 C0.6875 1.75 0.6875 1.75 1 4 C-0.4375 6.25 -0.4375 6.25 -2 8 C-2.66 7.67 -3.32 7.34 -4 7 C-3.39816251 4.97954558 -2.72693904 2.97888961 -2 1 C-1.34 0.67 -0.68 0.34 0 0 Z " transform="translate(169 194)" class="svgShape color373737-11 selectable"></path></svg></g></svg>